<svg width="22" height="22" viewBox="0 0 22 22" fill="none" xmlns="http://www.w3.org/2000/svg">
<g opacity="0.5">
<path d="M10.5274 2.75122H3.75684C3.20455 2.75122 2.75684 3.19894 2.75684 3.75122V10.6509C2.75684 10.9193 2.86479 11.1765 3.0564 11.3646L9.55727 17.7445C10.3272 18.5001 11.5576 18.5089 12.3383 17.7645L17.8674 12.4926C18.6837 11.7142 18.6953 10.4151 17.8929 9.62236L11.2302 3.03985C11.0431 2.85492 10.7905 2.75122 10.5274 2.75122Z" stroke="#262626" stroke-width="1.5" stroke-linecap="round" stroke-linejoin="round"/>
<path d="M7.58578 6.86784C7.58578 7.25801 7.26949 7.57431 6.87932 7.57431C6.48915 7.57431 6.17285 7.25801 6.17285 6.86784C6.17285 6.47767 6.48915 6.16138 6.87932 6.16138C7.26949 6.16138 7.58578 6.47767 7.58578 6.86784Z" stroke="#262626" stroke-width="1.5"/>
</g>
</svg>
