<svg width="60" height="60" viewBox="0 0 60 60" fill="none" xmlns="http://www.w3.org/2000/svg">
<circle cx="30" cy="30" r="29.5" stroke="white"/>
<path d="M30.496 34.4756C30.496 32.3572 29.5009 30.7913 27.445 30.2044C28.945 29.4811 29.7273 28.3852 29.7273 26.6806C29.7273 23.3196 27.2458 22.5 24.3827 22.5H16.5V39.375H24.6035C27.642 39.375 30.496 37.9043 30.496 34.4756ZM20.1747 25.3807H23.6231C24.9487 25.3807 26.142 25.7567 26.142 27.3088C26.142 28.7417 25.2137 29.3183 23.9004 29.3183H20.1747V25.3807ZM20.1736 36.5092V31.862H24.1789C25.7967 31.862 26.8201 32.5429 26.8201 34.2716C26.8201 35.9762 25.5986 36.5092 24.1031 36.5092H20.1736Z" fill="white"/>
<path d="M36.6909 37.9307C39.5822 37.9307 41.4547 36.6159 42.3558 33.8211H39.4215C39.1056 34.8643 37.8037 35.4157 36.7939 35.4157C34.8456 35.4157 33.8222 34.2636 33.8222 32.3057H42.5539C42.8302 28.3876 40.6747 25.0483 36.6897 25.0483C33.0003 25.0483 30.4961 27.8477 30.4961 31.5147C30.4961 35.3205 32.8689 37.9307 36.6909 37.9307ZM36.5867 27.584C38.2565 27.584 39.0966 28.5744 39.2369 30.1942H33.8267C33.9365 28.5882 34.9927 27.584 36.5867 27.584Z" fill="white"/>
<path d="M33.1484 23.3862H39.9274V25.0484H33.1484V23.3862Z" fill="white"/>
</svg>
