<svg width="29" height="29" viewBox="0 0 29 29" fill="none" xmlns="http://www.w3.org/2000/svg">
<circle cx="14.16" cy="14.16" r="13.66" stroke="#A4A4A4"/>
<path d="M14.3942 16.2725C14.3942 15.2726 13.9245 14.5335 12.9541 14.2565C13.6621 13.9151 14.0314 13.3978 14.0314 12.5933C14.0314 11.0069 12.8601 10.62 11.5087 10.62H7.78809V18.585H11.6129C13.0471 18.585 14.3942 17.8908 14.3942 16.2725ZM9.52257 11.9797H11.1502C11.7759 11.9797 12.3391 12.1572 12.3391 12.8898C12.3391 13.5661 11.9009 13.8382 11.2811 13.8382H9.52257V11.9797ZM9.52203 17.2323V15.0389H11.4125C12.1761 15.0389 12.6592 15.3603 12.6592 16.1762C12.6592 16.9807 12.0826 17.2323 11.3767 17.2323H9.52203Z" fill="#A4A4A4"/>
<path d="M17.3185 17.9033C18.6832 17.9033 19.567 17.2827 19.9923 15.9636H18.6073C18.4582 16.4559 17.8437 16.7162 17.3671 16.7162C16.4475 16.7162 15.9644 16.1724 15.9644 15.2483H20.0858C20.2162 13.3989 19.1988 11.8228 17.3179 11.8228C15.5765 11.8228 14.3945 13.1441 14.3945 14.875C14.3945 16.6713 15.5145 17.9033 17.3185 17.9033ZM17.2693 13.0196C18.0575 13.0196 18.4539 13.4871 18.5202 14.2516H15.9666C16.0184 13.4936 16.5169 13.0196 17.2693 13.0196Z" fill="#A4A4A4"/>
<path d="M15.6465 11.0382H18.8461V11.8228H15.6465V11.0382Z" fill="#A4A4A4"/>
</svg>
