<svg width="20" height="20" viewBox="0 0 20 20" fill="none" xmlns="http://www.w3.org/2000/svg">
<path d="M13.9582 2.96662V1.66663C13.9582 1.32496 13.6749 1.04163 13.3332 1.04163C12.9915 1.04163 12.7082 1.32496 12.7082 1.66663V2.91663H7.29152V1.66663C7.29152 1.32496 7.00819 1.04163 6.66652 1.04163C6.32486 1.04163 6.04152 1.32496 6.04152 1.66663V2.96662C3.79153 3.17496 2.69987 4.51662 2.5332 6.50829C2.51653 6.74996 2.71653 6.94996 2.94987 6.94996H17.0499C17.2915 6.94996 17.4915 6.74162 17.4665 6.50829C17.2999 4.51662 16.2082 3.17496 13.9582 2.96662Z" fill="#292D32"/>
<path opacity="0.4" d="M16.6667 8.19995C17.125 8.19995 17.5 8.57495 17.5 9.03328V14.1666C17.5 16.6666 16.25 18.3333 13.3333 18.3333H6.66667C3.75 18.3333 2.5 16.6666 2.5 14.1666V9.03328C2.5 8.57495 2.875 8.19995 3.33333 8.19995H16.6667Z" fill="#292D32"/>
<path d="M12.3668 12.4916L11.9501 12.9166H11.9418L9.41677 15.4416C9.30844 15.5499 9.08344 15.6666 8.92511 15.6833L7.80011 15.8499C7.39177 15.9083 7.10846 15.6166 7.16679 15.2166L7.32513 14.0833C7.35013 13.9249 7.45844 13.7083 7.56677 13.5916L10.1001 11.0666L10.5168 10.6416C10.7918 10.3666 11.1001 10.1666 11.4335 10.1666C11.7168 10.1666 12.0251 10.2999 12.3668 10.6416C13.1168 11.3916 12.8751 11.9833 12.3668 12.4916Z" fill="#292D32"/>
</svg>
