<svg width="52" height="13" viewBox="0 0 52 13" fill="none" xmlns="http://www.w3.org/2000/svg">
<g clipPath="url(#clip0_2009_3306)">
<path d="M8.70219 0H0.983154C0.722702 0.000979732 0.473192 0.106691 0.289023 0.294086C0.104854 0.481481 0.000962865 0.735362 0 1.00038L0 1.94497H0.657872C0.762112 1.95489 0.858959 2.00404 0.929457 2.0828C0.999955 2.16156 1.03903 2.26425 1.03903 2.37078C1.03903 2.47731 0.999955 2.58 0.929457 2.65876C0.858959 2.73752 0.762112 2.78667 0.657872 2.79659H0V4.62256H0.657872C0.762112 4.63248 0.858959 4.68163 0.929457 4.76039C0.999955 4.83915 1.03903 4.94184 1.03903 5.04837C1.03903 5.1549 0.999955 5.25759 0.929457 5.33635C0.858959 5.41511 0.762112 5.46426 0.657872 5.47418H0V7.30015H0.657872C0.762112 7.31007 0.858959 7.35922 0.929457 7.43798C0.999955 7.51674 1.03903 7.61943 1.03903 7.72596C1.03903 7.83249 0.999955 7.93518 0.929457 8.01394C0.858959 8.0927 0.762112 8.14185 0.657872 8.15177H0V9.97774H0.657872C0.762112 9.98766 0.858959 10.0368 0.929457 10.1156C0.999955 10.1943 1.03903 10.297 1.03903 10.4035C1.03903 10.5101 0.999955 10.6128 0.929457 10.6915C0.858959 10.7703 0.762112 10.8194 0.657872 10.8294H0V11.774C0.000962865 12.039 0.104854 12.2928 0.289023 12.4802C0.473192 12.6676 0.722702 12.7734 0.983154 12.7743H8.70219C8.96264 12.7734 9.21215 12.6676 9.39632 12.4802C9.58049 12.2928 9.68438 12.039 9.68534 11.774V0.98922C9.68152 0.726147 9.57636 0.475112 9.3925 0.290116C9.20864 0.105121 8.96076 0.000945605 8.70219 0ZM6.37405 8.83604C6.07813 9.06119 5.72877 9.20236 5.36166 9.24512V9.86989C5.3607 9.9876 5.31406 10.1002 5.23192 10.183C5.14977 10.2659 5.03877 10.3124 4.92308 10.3124H4.72206C4.60671 10.3124 4.49609 10.2658 4.41452 10.1828C4.33296 10.0998 4.28714 9.98726 4.28714 9.86989V9.22653C4.10625 9.1958 3.92959 9.14337 3.76084 9.07033C3.46615 8.94923 3.21226 8.74385 3.02987 8.47903C2.8548 8.21317 2.76422 7.89902 2.77037 7.57906V7.40056C2.7698 7.38786 2.77214 7.37519 2.77722 7.36357C2.78229 7.35195 2.78996 7.3417 2.79961 7.33362C2.80803 7.32438 2.8182 7.31699 2.82951 7.31187C2.84081 7.30676 2.85303 7.30403 2.8654 7.30387H3.77546C3.80156 7.30405 3.82653 7.31475 3.8449 7.33362C3.85349 7.34236 3.8602 7.35283 3.8646 7.36436C3.869 7.37588 3.87101 7.38821 3.87048 7.40056V7.52328C3.87188 7.63265 3.8996 7.74001 3.9512 7.83596C4.00281 7.93191 4.07674 8.01353 4.16653 8.07367C4.40269 8.23396 4.68346 8.31224 4.96694 8.29681C5.19107 8.31361 5.4138 8.24905 5.59557 8.11458C5.66139 8.05959 5.71427 7.99029 5.75032 7.91178C5.78637 7.83327 5.80468 7.74754 5.8039 7.66088C5.80594 7.6003 5.79564 7.53994 5.77362 7.48362C5.7516 7.42729 5.71836 7.37622 5.67598 7.33362C5.5752 7.23374 5.45759 7.15312 5.32877 7.09561C5.18257 7.02867 4.96328 6.9357 4.63069 6.8167C4.31988 6.71587 4.0169 6.59157 3.72429 6.44481C3.47924 6.3193 3.26645 6.13718 3.10297 5.91301C2.92942 5.67199 2.8406 5.37858 2.85078 5.07998C2.8437 4.77715 2.92927 4.47955 3.09566 4.22836C3.26811 3.97903 3.5063 3.78437 3.78277 3.66681C3.94678 3.59551 4.11854 3.54432 4.29445 3.51434V2.90444C4.29445 2.78707 4.34027 2.67451 4.42183 2.59151C4.5034 2.50852 4.61402 2.46189 4.72937 2.46189H4.93039C5.04608 2.46189 5.15708 2.5084 5.23923 2.59128C5.32137 2.67417 5.36801 2.78673 5.36897 2.90444V3.51434C5.54531 3.54983 5.71701 3.60599 5.88065 3.68168C6.17541 3.81346 6.42846 4.02588 6.61162 4.2953C6.7934 4.56265 6.88801 4.88138 6.88208 5.20642V5.32915C6.88289 5.34209 6.88104 5.35506 6.87663 5.36723C6.87222 5.3794 6.86536 5.39049 6.85649 5.3998C6.84722 5.40865 6.83629 5.41551 6.82436 5.41998C6.81244 5.42445 6.79975 5.42644 6.78705 5.42584H5.86968C5.85699 5.42644 5.8443 5.42445 5.83237 5.41998C5.82044 5.41551 5.80952 5.40865 5.80024 5.3998C5.79137 5.39049 5.78451 5.3794 5.78011 5.36723C5.7757 5.35506 5.77384 5.34209 5.77466 5.32915V5.26593C5.77242 5.15298 5.74493 5.04204 5.69427 4.94152C5.64361 4.841 5.57111 4.75354 5.48227 4.68578C5.27186 4.5265 5.01313 4.44752 4.7513 4.46265C4.5429 4.45074 4.33635 4.50817 4.16287 4.62628C4.09458 4.67756 4.03959 4.74499 4.00266 4.82275C3.96573 4.9005 3.94796 4.98624 3.95089 5.07254C3.94905 5.19835 3.99335 5.32033 4.07515 5.41468C4.17952 5.52067 4.30383 5.60415 4.44064 5.66013C4.60145 5.7345 4.85364 5.83491 5.19354 5.95764C5.49746 6.06438 5.79519 6.18854 6.08532 6.32952C6.31149 6.44542 6.50987 6.61046 6.66644 6.81298C6.84865 7.04982 6.94079 7.3456 6.92594 7.646C6.93237 7.87455 6.88575 8.10141 6.78986 8.30818C6.69397 8.51495 6.55151 8.6958 6.37405 8.83604ZM9.20656 11.469C9.20637 11.6892 9.13456 11.9031 9.00232 12.0773C8.87008 12.2515 8.68487 12.3763 8.47559 12.4322C8.63288 12.2502 8.7199 12.0163 8.72046 11.774V0.98922C8.7193 0.751666 8.63508 0.522288 8.4829 0.342136C8.69218 0.397995 8.87739 0.522788 9.00963 0.697035C9.14187 0.871281 9.21368 1.08517 9.21387 1.30532L9.20656 11.469Z" fill="#D1D1D1"/>
<path d="M12.9746 9.12242C12.8061 9.00626 12.6644 8.85438 12.559 8.67721C12.4537 8.50004 12.3872 8.30177 12.3643 8.09601C12.3643 8.04767 12.3643 7.97701 12.3643 7.88776V7.71669C12.3666 7.69242 12.3755 7.66927 12.3898 7.64975C12.3983 7.64082 12.4086 7.63386 12.4199 7.62937C12.4313 7.62487 12.4435 7.62294 12.4556 7.62372H13.3145C13.3267 7.62318 13.3388 7.62522 13.3501 7.6297C13.3614 7.63418 13.3717 7.64101 13.3803 7.64975C13.3891 7.65819 13.3957 7.66872 13.3996 7.6804C13.4034 7.69209 13.4043 7.70456 13.4022 7.71669V7.83197C13.4029 7.9353 13.4286 8.03687 13.477 8.12768C13.5255 8.2185 13.5952 8.29575 13.68 8.35261C13.9005 8.50424 14.1635 8.57866 14.4292 8.56459C14.6567 8.58638 14.8836 8.517 15.0615 8.37121C15.1247 8.31287 15.1727 8.23959 15.2014 8.15787C15.2301 8.07614 15.2385 7.98847 15.226 7.90263C15.2124 7.79165 15.1591 7.68968 15.0762 7.61628C14.9791 7.53093 14.8693 7.46189 14.7509 7.41174C14.6156 7.35224 14.3854 7.2667 14.1186 7.15886C13.8451 7.0645 13.5778 6.95271 13.3182 6.82416C13.1006 6.71567 12.9058 6.56539 12.7444 6.38161C12.5695 6.19231 12.4581 5.95142 12.4264 5.69362C12.4264 5.65643 12.4264 5.59321 12.4264 5.50024C12.4184 5.28703 12.4599 5.0749 12.5475 4.88105C12.6351 4.68721 12.7664 4.51712 12.9308 4.38458C13.3121 4.09651 13.7793 3.95075 14.2538 3.97178C14.5818 3.96686 14.9074 4.02882 15.2114 4.15401C15.4803 4.2616 15.718 4.4369 15.9021 4.66349C16.0762 4.88333 16.1853 5.14904 16.2165 5.42958C16.2165 5.47049 16.2165 5.53743 16.2165 5.6304V5.74568C16.2157 5.77032 16.2067 5.79394 16.1909 5.81262C16.183 5.82127 16.1733 5.82807 16.1626 5.83256C16.1519 5.83705 16.1403 5.83913 16.1288 5.83866H15.2808C15.2687 5.83919 15.2566 5.83715 15.2452 5.83267C15.2339 5.82819 15.2236 5.82136 15.215 5.81262C15.2062 5.80419 15.1996 5.79365 15.1958 5.78197C15.1919 5.77029 15.191 5.75782 15.1931 5.74568V5.68618C15.1931 5.58 15.1698 5.47516 15.1249 5.37931C15.08 5.28345 15.0146 5.19899 14.9336 5.13207C14.7267 4.96562 14.4657 4.88462 14.2026 4.90522C13.9936 4.89179 13.7866 4.95367 13.6179 5.08001C13.5513 5.13645 13.5009 5.21009 13.472 5.2932C13.443 5.3763 13.4366 5.46581 13.4534 5.5523C13.465 5.66224 13.5157 5.76407 13.5959 5.83866C13.7044 5.93181 13.8281 6.00482 13.9614 6.05435C14.1113 6.12129 14.3269 6.21426 14.6449 6.32583C14.9629 6.4374 15.2443 6.56384 15.4307 6.65309C15.6329 6.75637 15.815 6.89625 15.9679 7.06589C16.1365 7.25449 16.2415 7.49291 16.2676 7.74644C16.2676 7.78363 16.2676 7.84685 16.2676 7.93982C16.2752 8.15912 16.2318 8.37714 16.141 8.57617C16.0502 8.7752 15.9145 8.94961 15.745 9.08523C15.3403 9.38604 14.8455 9.53457 14.3452 9.50547C13.8604 9.52479 13.3817 9.39099 12.9746 9.12242Z" fill="#D1D1D1"/>
<path d="M17.6531 9.1596C17.3495 8.93157 17.1316 8.60487 17.0354 8.2336C16.9952 8.10268 16.967 7.96822 16.9514 7.83196C16.9373 7.70851 16.93 7.58436 16.9294 7.46008C16.923 7.18316 16.96 6.90697 17.0391 6.64193C17.1428 6.28037 17.3629 5.96474 17.6641 5.74568C17.9801 5.52599 18.3559 5.41282 18.7386 5.42214C19.1152 5.41106 19.4854 5.52315 19.7948 5.74196C20.0885 5.96457 20.3038 6.27755 20.4088 6.63449C20.4931 6.89355 20.5351 7.1649 20.5331 7.43776C20.5315 7.70168 20.4959 7.96425 20.4271 8.21873C20.3327 8.59491 20.1164 8.92771 19.8131 9.16332C19.4965 9.40099 19.1097 9.52168 18.7167 9.50546C18.3346 9.51084 17.9613 9.38942 17.6531 9.1596ZM19.1516 8.41583C19.273 8.30066 19.3614 8.15414 19.4074 7.99188C19.4492 7.81037 19.4676 7.6241 19.4622 7.43776C19.4699 7.32261 19.4699 7.20706 19.4622 7.09191C19.4464 6.88563 19.3656 6.69003 19.232 6.53408C19.169 6.46725 19.0927 6.4148 19.0083 6.38018C18.9239 6.34556 18.8332 6.32957 18.7422 6.33326C18.5888 6.32762 18.4388 6.3807 18.3219 6.48201C18.2 6.58935 18.1132 6.73211 18.0734 6.89109C18.0189 7.06782 17.9942 7.25265 18.0003 7.43776C18.0004 7.56206 18.0077 7.68624 18.0222 7.80965C18.0402 8.00988 18.1209 8.19893 18.2525 8.34889C18.3143 8.41533 18.3892 8.46761 18.4724 8.50224C18.5556 8.53686 18.6451 8.55305 18.7349 8.54971C18.8857 8.55752 19.034 8.50854 19.1516 8.41211V8.41583Z" fill="#D1D1D1"/>
<path d="M24.4878 6.66422C24.6827 6.75732 24.8504 6.90068 24.9742 7.08007C25.0979 7.25947 25.1734 7.46867 25.1931 7.68691C25.1973 7.76619 25.1973 7.84564 25.1931 7.92492C25.204 8.13815 25.1642 8.35089 25.077 8.54511C24.9898 8.73933 24.8579 8.90929 24.6924 9.04058C24.3123 9.30717 23.856 9.43796 23.395 9.41247H21.4469C21.4227 9.4117 21.3995 9.40251 21.3811 9.38644C21.3725 9.37769 21.3658 9.36723 21.3614 9.3557C21.357 9.34418 21.355 9.33185 21.3556 9.3195V4.11307C21.3575 4.08912 21.3679 4.06669 21.3848 4.04985C21.3922 4.04033 21.4016 4.03268 21.4124 4.02751C21.4232 4.02235 21.435 4.01981 21.4469 4.0201H23.3365C24.411 4.0201 24.9982 4.42422 25.0981 5.23246C25.1055 5.32279 25.1055 5.4136 25.0981 5.50393C25.1152 5.73394 25.0632 5.9638 24.9489 6.16304C24.8347 6.36228 24.6637 6.5215 24.4585 6.6196C24.4415 6.63447 24.4512 6.64935 24.4878 6.66422ZM22.4374 4.97957C22.4354 4.98363 22.4344 4.98808 22.4344 4.99259C22.4344 4.9971 22.4354 5.00155 22.4374 5.0056V6.21052C22.4374 6.23655 22.4374 6.24771 22.4739 6.24771H23.3584C23.553 6.25847 23.7453 6.20068 23.903 6.08408C23.969 6.0266 24.0211 5.95445 24.0553 5.8732C24.0896 5.79194 24.105 5.70377 24.1003 5.6155V5.52253C24.0933 5.44227 24.0699 5.36441 24.0315 5.29394C23.9931 5.22348 23.9406 5.162 23.8774 5.11345C23.7242 5.00954 23.5422 4.95867 23.3584 4.96842H22.452C22.4472 4.96826 22.4424 4.96918 22.438 4.9711C22.4336 4.97303 22.4296 4.97592 22.4264 4.97957H22.4374ZM23.9834 8.28193C24.0484 8.20234 24.0946 8.10872 24.1187 8.00819C24.1428 7.90766 24.144 7.80287 24.1223 7.70179C24.1156 7.62 24.092 7.54059 24.0529 7.46879C24.0138 7.39699 23.9602 7.33444 23.8957 7.28527C23.7475 7.17911 23.5686 7.12672 23.3876 7.13652H22.4557C22.4301 7.13652 22.4191 7.13652 22.4228 7.17743V8.45672C22.4228 8.48275 22.4228 8.49763 22.4557 8.49763H23.3913C23.4978 8.50709 23.605 8.49268 23.7054 8.45541C23.8058 8.41814 23.8969 8.35893 23.9724 8.28193H23.9834Z" fill="#D1D1D1"/>
<path d="M28.3509 5.49647C28.3587 5.48762 28.3683 5.48068 28.379 5.47617C28.3898 5.47166 28.4014 5.4697 28.413 5.47044H29.2975C29.3097 5.4699 29.3218 5.47194 29.3331 5.47642C29.3444 5.48091 29.3547 5.48773 29.3633 5.49647C29.3718 5.50434 29.3783 5.51423 29.3821 5.52527C29.3859 5.5363 29.387 5.54813 29.3852 5.55969V9.3455C29.3832 9.37053 29.3729 9.39412 29.356 9.41244C29.3478 9.42073 29.3381 9.42729 29.3275 9.43175C29.3168 9.43622 29.3054 9.43851 29.2939 9.43848H28.413C28.4015 9.43851 28.3901 9.43622 28.3794 9.43175C28.3688 9.42729 28.3591 9.42073 28.3509 9.41244C28.3417 9.40418 28.3346 9.39379 28.3301 9.38215C28.3257 9.3705 28.324 9.35793 28.3253 9.3455V9.01453C28.3253 8.99221 28.3253 8.98106 28.3253 8.97734C28.3253 8.97362 28.3253 8.97734 28.2961 8.99965C28.1979 9.16173 28.0584 9.29368 27.8923 9.38144C27.7263 9.46919 27.5399 9.50947 27.3531 9.49798C27.0315 9.50209 26.7186 9.39157 26.4687 9.18559C26.2053 8.97141 26.019 8.6746 25.9387 8.34141C25.9094 8.23273 25.8875 8.12215 25.8729 8.01043C25.8471 7.82059 25.8325 7.62934 25.8291 7.43772C25.8213 7.10619 25.8619 6.77531 25.9497 6.45594C26.0487 6.15935 26.2334 5.9001 26.4796 5.71217C26.7381 5.51366 27.055 5.4101 27.3787 5.41837C27.5541 5.40448 27.7299 5.43853 27.888 5.51699C28.046 5.59545 28.1806 5.71548 28.2778 5.86464C28.2778 5.86464 28.2997 5.89067 28.3107 5.89067C28.3217 5.89067 28.3107 5.89067 28.3107 5.8572V5.57829C28.3109 5.56243 28.3145 5.54682 28.3215 5.53265C28.3285 5.51847 28.3385 5.50609 28.3509 5.49647ZM28.3034 7.85424C28.3204 7.72358 28.3277 7.59181 28.3253 7.46004C28.3359 7.33631 28.3359 7.21188 28.3253 7.08815C28.3104 6.97962 28.2822 6.87342 28.2413 6.77204C28.2029 6.64367 28.1263 6.53061 28.022 6.4485C27.9161 6.3694 27.7878 6.32762 27.6565 6.3295C27.5187 6.32569 27.3836 6.36889 27.2727 6.45222C27.167 6.53687 27.0872 6.65038 27.0425 6.77948C26.966 6.98994 26.93 7.21342 26.9365 7.43772C26.9288 7.56156 26.9288 7.68577 26.9365 7.80961C26.9496 7.90526 26.9742 7.99893 27.0096 8.08853C27.0495 8.22111 27.1302 8.33713 27.2398 8.41951C27.3521 8.50286 27.4883 8.54602 27.6273 8.54223C27.7594 8.54566 27.8886 8.50228 27.9927 8.41951C28.097 8.33428 28.1735 8.21888 28.212 8.08853C28.2514 8.01432 28.282 7.93569 28.3034 7.85424Z" fill="#D1D1D1"/>
<path d="M33.1568 5.71589C33.4013 5.93624 33.5531 6.24383 33.5807 6.57495C33.5807 6.61958 33.5807 6.69767 33.5807 6.81296V9.34551C33.58 9.37014 33.571 9.39377 33.5552 9.41245C33.547 9.42073 33.5373 9.42729 33.5266 9.43176C33.516 9.43623 33.5046 9.43851 33.493 9.43848H32.6159C32.6034 9.43955 32.5909 9.43791 32.5792 9.43367C32.5674 9.42943 32.5567 9.42268 32.5477 9.41388C32.5387 9.40508 32.5316 9.39443 32.527 9.38264C32.5224 9.37085 32.5203 9.35819 32.5208 9.34551V7.03609C32.5256 6.99532 32.5256 6.95413 32.5208 6.91337C32.5055 6.75622 32.4355 6.60981 32.3235 6.50057C32.2695 6.44803 32.2059 6.40685 32.1363 6.37941C32.0667 6.35196 31.9924 6.3388 31.9178 6.34066C31.8338 6.33708 31.7501 6.35219 31.6724 6.38495C31.5948 6.41771 31.5251 6.46732 31.4682 6.53032C31.3494 6.67027 31.2879 6.85133 31.2965 7.03609V9.34551C31.2957 9.37014 31.2867 9.39377 31.2709 9.41245C31.2627 9.42073 31.253 9.42729 31.2424 9.43176C31.2317 9.43623 31.2203 9.43851 31.2087 9.43848H30.3352C30.311 9.43771 30.2878 9.42852 30.2694 9.41245C30.2613 9.40352 30.2552 9.39293 30.2514 9.38139C30.2476 9.36984 30.2463 9.35761 30.2475 9.34551V5.57829C30.2488 5.55489 30.2578 5.53261 30.2731 5.51507C30.2808 5.50622 30.2905 5.49928 30.3012 5.49477C30.312 5.49026 30.3236 5.4883 30.3352 5.48904H31.2124C31.2245 5.4885 31.2367 5.49054 31.248 5.49502C31.2593 5.4995 31.2696 5.50633 31.2782 5.51507C31.286 5.52343 31.292 5.53339 31.2958 5.54429C31.2996 5.55519 31.3011 5.56677 31.3001 5.57829V5.84977C31.2979 5.85439 31.2967 5.85948 31.2967 5.86464C31.2967 5.86981 31.2979 5.8749 31.3001 5.87952C31.3001 5.87952 31.3001 5.87952 31.3257 5.87952C31.4268 5.73081 31.5642 5.61146 31.7244 5.53321C31.8847 5.45496 32.0621 5.42051 32.2394 5.43325C32.5689 5.40964 32.8955 5.51024 33.1568 5.71589Z" fill="#D1D1D1"/>
<path d="M37.3194 4.061C37.3271 4.05187 37.3367 4.0445 37.3474 4.03938C37.3581 4.03425 37.3697 4.03148 37.3816 4.03125H38.266C38.2784 4.03142 38.2906 4.03414 38.3019 4.03925C38.3132 4.04437 38.3234 4.05177 38.3318 4.061C38.3406 4.06865 38.3473 4.07852 38.3511 4.08962C38.355 4.10072 38.3559 4.11265 38.3537 4.12422V9.33064C38.353 9.35528 38.344 9.3789 38.3282 9.39758C38.32 9.40587 38.3103 9.41243 38.2996 9.41689C38.289 9.42136 38.2776 9.42364 38.266 9.42362H37.3816C37.3573 9.42284 37.3341 9.41365 37.3158 9.39758C37.3069 9.38915 37.3003 9.37861 37.2965 9.36693C37.2927 9.35525 37.2918 9.34278 37.2938 9.33064V7.21461C37.2938 7.18857 37.2938 7.17742 37.2573 7.17742H35.5907C35.5651 7.17742 35.5541 7.17742 35.5578 7.21461V9.34552C35.5557 9.37054 35.5454 9.39413 35.5285 9.41246C35.5204 9.42074 35.5107 9.4273 35.5 9.43177C35.4894 9.43624 35.4779 9.43852 35.4664 9.43849H34.5856C34.5613 9.43836 34.5378 9.42909 34.5198 9.41246C34.5112 9.40371 34.5045 9.39325 34.5001 9.38172C34.4957 9.3702 34.4937 9.35787 34.4942 9.34552V4.1391C34.4962 4.11514 34.5066 4.09271 34.5235 4.07588C34.5308 4.06635 34.5403 4.0587 34.5511 4.05354C34.5619 4.04837 34.5737 4.04584 34.5856 4.04613H35.4518C35.4642 4.04582 35.4766 4.04833 35.488 4.05347C35.4994 4.05862 35.5095 4.06627 35.5176 4.07588C35.5261 4.08391 35.5328 4.09372 35.5372 4.10464C35.5416 4.11555 35.5436 4.12731 35.5432 4.1391V6.21795C35.5432 6.24398 35.5432 6.25514 35.5797 6.25514H37.2792C37.3048 6.25514 37.3158 6.25514 37.3121 6.21795V4.12422C37.3075 4.10291 37.31 4.08063 37.3194 4.061Z" fill="#D1D1D1"/>
<path d="M41.6649 5.49647C41.6734 5.48773 41.6837 5.48091 41.6951 5.47642C41.7064 5.47194 41.7185 5.4699 41.7306 5.47044H42.6115C42.6236 5.4699 42.6357 5.47194 42.647 5.47642C42.6584 5.48091 42.6686 5.48773 42.6772 5.49647C42.6855 5.50465 42.6921 5.51449 42.6965 5.52537C42.7009 5.53624 42.7031 5.54793 42.7028 5.55969V9.3455C42.7021 9.37014 42.693 9.39376 42.6772 9.41244C42.6603 9.42853 42.6382 9.43779 42.6151 9.43848H41.7306C41.7064 9.4377 41.6832 9.42851 41.6649 9.41244C41.6563 9.4037 41.6496 9.39323 41.6451 9.38171C41.6407 9.37018 41.6387 9.35786 41.6393 9.3455V9.01452C41.6393 8.99221 41.6393 8.98105 41.6393 8.97734C41.6326 8.97712 41.6261 8.97921 41.6208 8.98327C41.6155 8.98733 41.6117 8.9931 41.61 8.99965C41.511 9.16175 41.3707 9.29362 41.2041 9.38133C41.0375 9.46905 40.8507 9.50935 40.6634 9.49798C40.3419 9.50146 40.0292 9.39102 39.7789 9.18559C39.5166 8.97047 39.3305 8.67404 39.249 8.34141C39.2192 8.23306 39.1984 8.12234 39.1869 8.01043C39.1648 7.82285 39.1538 7.63408 39.154 7.44516C39.1474 7.11075 39.1905 6.77724 39.2819 6.45594C39.3796 6.1587 39.5646 5.8991 39.8118 5.71217C40.0703 5.51366 40.3872 5.4101 40.7109 5.41837C40.8863 5.40448 41.0621 5.43853 41.2202 5.51699C41.3783 5.59545 41.5128 5.71548 41.61 5.86464C41.61 5.86464 41.632 5.89067 41.6393 5.89067C41.6466 5.89067 41.6393 5.89067 41.6393 5.8572V5.57829C41.6387 5.5489 41.6477 5.52014 41.6649 5.49647ZM41.621 7.85424C41.6379 7.72358 41.6453 7.59181 41.6429 7.46004C41.6515 7.33623 41.6515 7.21196 41.6429 7.08815C41.6265 6.97952 41.5971 6.87335 41.5552 6.77204C41.5183 6.64394 41.4429 6.53081 41.3396 6.4485C41.2337 6.3694 41.1054 6.32762 40.9741 6.3295C40.8363 6.32569 40.7012 6.36889 40.5903 6.45222C40.4846 6.53604 40.4057 6.64995 40.3637 6.77948C40.2792 6.98815 40.2369 7.21204 40.2395 7.43772C40.23 7.5615 40.23 7.68584 40.2395 7.80961C40.2508 7.90561 40.2754 7.9995 40.3126 8.08853C40.3489 8.22624 40.4303 8.34727 40.5432 8.43175C40.6561 8.51622 40.7938 8.55911 40.9339 8.55338C41.0658 8.55532 41.1945 8.5121 41.2994 8.43066C41.4025 8.34436 41.4787 8.22935 41.5187 8.09968C41.556 8.02109 41.5853 7.93885 41.6064 7.85424H41.621Z" fill="#D1D1D1"/>
<path d="M46.4572 5.71593C46.7029 5.93532 46.855 6.24345 46.8812 6.57499C46.8853 6.65427 46.8853 6.73372 46.8812 6.813V9.34555C46.8791 9.37058 46.8688 9.39417 46.8519 9.41249C46.8438 9.42078 46.8341 9.42734 46.8234 9.4318C46.8127 9.43627 46.8013 9.43855 46.7898 9.43853H45.9163C45.9037 9.43956 45.891 9.43791 45.8791 9.4337C45.8671 9.42949 45.8562 9.42281 45.8469 9.41407C45.8376 9.40533 45.8302 9.39473 45.8252 9.38294C45.8201 9.37115 45.8176 9.35842 45.8176 9.34555V7.03613C45.8204 6.99528 45.8204 6.95427 45.8176 6.91341C45.8026 6.75538 45.7311 6.60846 45.6166 6.50062C45.5629 6.44773 45.4993 6.40633 45.4296 6.37887C45.36 6.3514 45.2856 6.33843 45.2109 6.3407C45.1269 6.33712 45.0432 6.35224 44.9655 6.385C44.8879 6.41775 44.8182 6.46737 44.7613 6.53037C44.6421 6.66989 44.5817 6.85161 44.5932 7.03613V9.34555C44.5908 9.36982 44.582 9.39297 44.5676 9.41249C44.5493 9.42856 44.5261 9.43775 44.5019 9.43853H43.6393C43.6151 9.43775 43.5919 9.42856 43.5735 9.41249C43.5649 9.40375 43.5582 9.39328 43.5538 9.38176C43.5494 9.37024 43.5474 9.35791 43.5479 9.34555V5.57834C43.5509 5.55536 43.5598 5.53358 43.5735 5.51511C43.582 5.50618 43.5922 5.49923 43.6036 5.49473C43.615 5.49024 43.6271 5.48831 43.6393 5.48908H44.5128C44.525 5.48855 44.5371 5.49059 44.5484 5.49507C44.5597 5.49955 44.57 5.50638 44.5786 5.51511C44.5902 5.53394 44.5941 5.55661 44.5896 5.57834V5.84981C44.5896 5.84981 44.5896 5.87585 44.5896 5.87956C44.5896 5.88328 44.5896 5.87956 44.6188 5.87956C44.7194 5.73031 44.8567 5.61054 45.0171 5.53223C45.1774 5.45392 45.3552 5.4198 45.5325 5.4333C45.8645 5.40746 46.1941 5.5082 46.4572 5.71593Z" fill="#D1D1D1"/>
<path d="M50.1192 5.49651C50.1269 5.48766 50.1366 5.48072 50.1473 5.47621C50.1581 5.4717 50.1697 5.46974 50.1813 5.47048H51.0621C51.0743 5.46995 51.0864 5.47198 51.0977 5.47646C51.1091 5.48095 51.1193 5.48777 51.1279 5.49651C51.1416 5.50488 51.1526 5.51701 51.1597 5.53149C51.1668 5.54597 51.1697 5.56222 51.1681 5.57833V9.1001C51.1912 9.37017 51.1512 9.64196 51.0515 9.89334C50.9518 10.1447 50.7951 10.3686 50.5943 10.5467C50.1668 10.8501 49.653 11.0017 49.1324 10.9781C48.9569 10.9781 48.7669 10.9781 48.5366 10.9409C48.5252 10.9396 48.5142 10.9359 48.5042 10.93C48.4942 10.9242 48.4855 10.9163 48.4787 10.9069C48.4718 10.8975 48.4669 10.8867 48.4643 10.8753C48.4617 10.8639 48.4615 10.8521 48.4635 10.8405L48.4964 10.0447C48.4964 9.97775 48.5257 9.948 48.5951 9.95916C48.7606 9.9872 48.928 10.0021 49.0958 10.0038C49.3566 10.0192 49.6146 9.94305 49.8268 9.78809C49.9185 9.69968 49.989 9.59095 50.0327 9.47034C50.0764 9.34974 50.0923 9.2205 50.079 9.09266C50.079 9.09266 50.079 9.07035 50.079 9.06663C50.0747 9.06359 50.0696 9.06196 50.0644 9.06196C50.0591 9.06196 50.054 9.06359 50.0498 9.06663C49.9398 9.1761 49.8085 9.26082 49.6643 9.31528C49.5201 9.36974 49.3663 9.39272 49.2128 9.38273C48.8973 9.38483 48.587 9.3014 48.3137 9.14101C48.0289 8.96343 47.8201 8.68331 47.7289 8.35633C47.6904 8.22769 47.6634 8.09574 47.6485 7.96212C47.6339 7.82825 47.6229 7.65346 47.6156 7.43776C47.6105 7.10536 47.6561 6.77415 47.7508 6.45598C47.851 6.15902 48.037 5.89977 48.2845 5.71221C48.5366 5.52138 48.8437 5.42071 49.158 5.42585C49.324 5.41521 49.4903 5.44316 49.6442 5.50759C49.7981 5.57202 49.9355 5.67125 50.0461 5.79774H50.079C50.079 5.79774 50.079 5.79774 50.079 5.76799V5.57833C50.0796 5.56257 50.0835 5.54714 50.0905 5.53303C50.0974 5.51893 50.1072 5.50648 50.1192 5.49651ZM50.0936 7.43776C50.1033 7.314 50.1033 7.18964 50.0936 7.06588C50.0846 6.98498 50.0674 6.90523 50.0424 6.82787C50.004 6.69444 49.9262 6.57628 49.8195 6.48945C49.7052 6.40421 49.5664 6.35977 49.4248 6.36301C49.2865 6.36027 49.1514 6.40479 49.041 6.48945C48.9332 6.57748 48.852 6.69482 48.8071 6.82787C48.7281 7.02596 48.6919 7.23905 48.7011 7.45264C48.6929 7.56529 48.6929 7.67841 48.7011 7.79106C48.7096 7.8876 48.7344 7.98194 48.7742 8.06997C48.8126 8.2053 48.8951 8.32332 49.0081 8.40467C49.1246 8.49154 49.2658 8.53725 49.4102 8.53483C49.5549 8.53986 49.6969 8.49389 49.8122 8.40467C49.9178 8.3223 49.9947 8.20758 50.0315 8.07741C50.0769 7.86743 50.0978 7.65273 50.0936 7.43776Z" fill="#D1D1D1"/>
<path d="M8.70219 0H0.983154C0.722702 0.000979732 0.473192 0.106691 0.289023 0.294086C0.104854 0.481481 0.000962865 0.735362 0 1.00038L0 1.94497H0.657872C0.762112 1.95489 0.858959 2.00404 0.929457 2.0828C0.999955 2.16156 1.03903 2.26425 1.03903 2.37078C1.03903 2.47731 0.999955 2.58 0.929457 2.65876C0.858959 2.73752 0.762112 2.78667 0.657872 2.79659H0V4.62256H0.657872C0.762112 4.63248 0.858959 4.68163 0.929457 4.76039C0.999955 4.83915 1.03903 4.94184 1.03903 5.04837C1.03903 5.1549 0.999955 5.25759 0.929457 5.33635C0.858959 5.41511 0.762112 5.46426 0.657872 5.47418H0V7.30015H0.657872C0.762112 7.31007 0.858959 7.35922 0.929457 7.43798C0.999955 7.51674 1.03903 7.61943 1.03903 7.72596C1.03903 7.83249 0.999955 7.93518 0.929457 8.01394C0.858959 8.0927 0.762112 8.14185 0.657872 8.15177H0V9.97774H0.657872C0.762112 9.98766 0.858959 10.0368 0.929457 10.1156C0.999955 10.1943 1.03903 10.297 1.03903 10.4035C1.03903 10.5101 0.999955 10.6128 0.929457 10.6915C0.858959 10.7703 0.762112 10.8194 0.657872 10.8294H0V11.774C0.000962865 12.039 0.104854 12.2928 0.289023 12.4802C0.473192 12.6676 0.722702 12.7734 0.983154 12.7743H8.70219C8.96264 12.7734 9.21215 12.6676 9.39632 12.4802C9.58049 12.2928 9.68438 12.039 9.68534 11.774V0.98922C9.68152 0.726147 9.57636 0.475112 9.3925 0.290116C9.20864 0.105121 8.96076 0.000945605 8.70219 0ZM6.37405 8.83604C6.07813 9.06119 5.72877 9.20236 5.36166 9.24512V9.86989C5.3607 9.9876 5.31406 10.1002 5.23192 10.183C5.14977 10.2659 5.03877 10.3124 4.92308 10.3124H4.72206C4.60671 10.3124 4.49609 10.2658 4.41452 10.1828C4.33296 10.0998 4.28714 9.98726 4.28714 9.86989V9.22653C4.10625 9.1958 3.92959 9.14337 3.76084 9.07033C3.46615 8.94923 3.21226 8.74385 3.02987 8.47903C2.8548 8.21317 2.76422 7.89902 2.77037 7.57906V7.40056C2.7698 7.38786 2.77214 7.37519 2.77722 7.36357C2.78229 7.35195 2.78996 7.3417 2.79961 7.33362C2.80803 7.32438 2.8182 7.31699 2.82951 7.31187C2.84081 7.30676 2.85303 7.30403 2.8654 7.30387H3.77546C3.80156 7.30405 3.82653 7.31475 3.8449 7.33362C3.85349 7.34236 3.8602 7.35283 3.8646 7.36436C3.869 7.37588 3.87101 7.38821 3.87048 7.40056V7.52328C3.87188 7.63265 3.8996 7.74001 3.9512 7.83596C4.00281 7.93191 4.07674 8.01353 4.16653 8.07367C4.40269 8.23396 4.68346 8.31224 4.96694 8.29681C5.19107 8.31361 5.4138 8.24905 5.59557 8.11458C5.66139 8.05959 5.71427 7.99029 5.75032 7.91178C5.78637 7.83327 5.80468 7.74754 5.8039 7.66088C5.80594 7.6003 5.79564 7.53994 5.77362 7.48362C5.7516 7.42729 5.71836 7.37622 5.67598 7.33362C5.5752 7.23374 5.45759 7.15312 5.32877 7.09561C5.18257 7.02867 4.96328 6.9357 4.63069 6.8167C4.31988 6.71587 4.0169 6.59157 3.72429 6.44481C3.47924 6.3193 3.26645 6.13718 3.10297 5.91301C2.92942 5.67199 2.8406 5.37858 2.85078 5.07998C2.8437 4.77715 2.92927 4.47955 3.09566 4.22836C3.26811 3.97903 3.5063 3.78437 3.78277 3.66681C3.94678 3.59551 4.11854 3.54432 4.29445 3.51434V2.90444C4.29445 2.78707 4.34027 2.67451 4.42183 2.59151C4.5034 2.50852 4.61402 2.46189 4.72937 2.46189H4.93039C5.04608 2.46189 5.15708 2.5084 5.23923 2.59128C5.32137 2.67417 5.36801 2.78673 5.36897 2.90444V3.51434C5.54531 3.54983 5.71701 3.60599 5.88065 3.68168C6.17541 3.81346 6.42846 4.02588 6.61162 4.2953C6.7934 4.56265 6.88801 4.88138 6.88208 5.20642V5.32915C6.88289 5.34209 6.88104 5.35506 6.87663 5.36723C6.87222 5.3794 6.86536 5.39049 6.85649 5.3998C6.84722 5.40865 6.83629 5.41551 6.82436 5.41998C6.81244 5.42445 6.79975 5.42644 6.78705 5.42584H5.86968C5.85699 5.42644 5.8443 5.42445 5.83237 5.41998C5.82044 5.41551 5.80952 5.40865 5.80024 5.3998C5.79137 5.39049 5.78451 5.3794 5.78011 5.36723C5.7757 5.35506 5.77384 5.34209 5.77466 5.32915V5.26593C5.77242 5.15298 5.74493 5.04204 5.69427 4.94152C5.64361 4.841 5.57111 4.75354 5.48227 4.68578C5.27186 4.5265 5.01313 4.44752 4.7513 4.46265C4.5429 4.45074 4.33635 4.50817 4.16287 4.62628C4.09458 4.67756 4.03959 4.74499 4.00266 4.82275C3.96573 4.9005 3.94796 4.98624 3.95089 5.07254C3.94905 5.19835 3.99335 5.32033 4.07515 5.41468C4.17952 5.52067 4.30383 5.60415 4.44064 5.66013C4.60145 5.7345 4.85364 5.83491 5.19354 5.95764C5.49746 6.06438 5.79519 6.18854 6.08532 6.32952C6.31149 6.44542 6.50987 6.61046 6.66644 6.81298C6.84865 7.04982 6.94079 7.3456 6.92594 7.646C6.93237 7.87455 6.88575 8.10141 6.78986 8.30818C6.69397 8.51495 6.55151 8.6958 6.37405 8.83604ZM9.20656 11.469C9.20637 11.6892 9.13456 11.9031 9.00232 12.0773C8.87008 12.2515 8.68487 12.3763 8.47559 12.4322C8.63288 12.2502 8.7199 12.0163 8.72046 11.774V0.98922C8.7193 0.751666 8.63508 0.522288 8.4829 0.342136C8.69218 0.397995 8.87739 0.522788 9.00963 0.697035C9.14187 0.871281 9.21368 1.08517 9.21387 1.30532L9.20656 11.469Z" fill="#D1D1D1"/>
<path d="M12.9746 9.12242C12.8061 9.00626 12.6644 8.85438 12.559 8.67721C12.4537 8.50004 12.3872 8.30177 12.3643 8.09601C12.3643 8.04767 12.3643 7.97701 12.3643 7.88776V7.71669C12.3666 7.69242 12.3755 7.66927 12.3898 7.64975C12.3983 7.64082 12.4086 7.63386 12.4199 7.62937C12.4313 7.62487 12.4435 7.62294 12.4556 7.62372H13.3145C13.3267 7.62318 13.3388 7.62522 13.3501 7.6297C13.3614 7.63418 13.3717 7.64101 13.3803 7.64975C13.3891 7.65819 13.3957 7.66872 13.3996 7.6804C13.4034 7.69209 13.4043 7.70456 13.4022 7.71669V7.83197C13.4029 7.9353 13.4286 8.03687 13.477 8.12768C13.5255 8.2185 13.5952 8.29575 13.68 8.35261C13.9005 8.50424 14.1635 8.57866 14.4292 8.56459C14.6567 8.58638 14.8836 8.517 15.0615 8.37121C15.1247 8.31287 15.1727 8.23959 15.2014 8.15787C15.2301 8.07614 15.2385 7.98847 15.226 7.90263C15.2124 7.79165 15.1591 7.68968 15.0762 7.61628C14.9791 7.53093 14.8693 7.46189 14.7509 7.41174C14.6156 7.35224 14.3854 7.2667 14.1186 7.15886C13.8451 7.0645 13.5778 6.95271 13.3182 6.82416C13.1006 6.71567 12.9058 6.56539 12.7444 6.38161C12.5695 6.19231 12.4581 5.95142 12.4264 5.69362C12.4264 5.65643 12.4264 5.59321 12.4264 5.50024C12.4184 5.28703 12.4599 5.0749 12.5475 4.88105C12.6351 4.68721 12.7664 4.51712 12.9308 4.38458C13.3121 4.09651 13.7793 3.95075 14.2538 3.97178C14.5818 3.96686 14.9074 4.02882 15.2114 4.15401C15.4803 4.2616 15.718 4.4369 15.9021 4.66349C16.0762 4.88333 16.1853 5.14904 16.2165 5.42958C16.2165 5.47049 16.2165 5.53743 16.2165 5.6304V5.74568C16.2157 5.77032 16.2067 5.79394 16.1909 5.81262C16.183 5.82127 16.1733 5.82807 16.1626 5.83256C16.1519 5.83705 16.1403 5.83913 16.1288 5.83866H15.2808C15.2687 5.83919 15.2566 5.83715 15.2452 5.83267C15.2339 5.82819 15.2236 5.82136 15.215 5.81262C15.2062 5.80419 15.1996 5.79365 15.1958 5.78197C15.1919 5.77029 15.191 5.75782 15.1931 5.74568V5.68618C15.1931 5.58 15.1698 5.47516 15.1249 5.37931C15.08 5.28345 15.0146 5.19899 14.9336 5.13207C14.7267 4.96562 14.4657 4.88462 14.2026 4.90522C13.9936 4.89179 13.7866 4.95367 13.6179 5.08001C13.5513 5.13645 13.5009 5.21009 13.472 5.2932C13.443 5.3763 13.4366 5.46581 13.4534 5.5523C13.465 5.66224 13.5157 5.76407 13.5959 5.83866C13.7044 5.93181 13.8281 6.00482 13.9614 6.05435C14.1113 6.12129 14.3269 6.21426 14.6449 6.32583C14.9629 6.4374 15.2443 6.56384 15.4307 6.65309C15.6329 6.75637 15.815 6.89625 15.9679 7.06589C16.1365 7.25449 16.2415 7.49291 16.2676 7.74644C16.2676 7.78363 16.2676 7.84685 16.2676 7.93982C16.2752 8.15912 16.2318 8.37714 16.141 8.57617C16.0502 8.7752 15.9145 8.94961 15.745 9.08523C15.3403 9.38604 14.8455 9.53457 14.3452 9.50547C13.8604 9.52479 13.3817 9.39099 12.9746 9.12242Z" fill="#D1D1D1"/>
<path d="M17.6531 9.1596C17.3495 8.93157 17.1316 8.60487 17.0354 8.2336C16.9952 8.10268 16.967 7.96822 16.9514 7.83196C16.9373 7.70851 16.93 7.58436 16.9294 7.46008C16.923 7.18316 16.96 6.90697 17.0391 6.64193C17.1428 6.28037 17.3629 5.96474 17.6641 5.74568C17.9801 5.52599 18.3559 5.41282 18.7386 5.42214C19.1152 5.41106 19.4854 5.52315 19.7948 5.74196C20.0885 5.96457 20.3038 6.27755 20.4088 6.63449C20.4931 6.89355 20.5351 7.1649 20.5331 7.43776C20.5315 7.70168 20.4959 7.96425 20.4271 8.21873C20.3327 8.59491 20.1164 8.92771 19.8131 9.16332C19.4965 9.40099 19.1097 9.52168 18.7167 9.50546C18.3346 9.51084 17.9613 9.38942 17.6531 9.1596ZM19.1516 8.41583C19.273 8.30066 19.3614 8.15414 19.4074 7.99188C19.4492 7.81037 19.4676 7.6241 19.4622 7.43776C19.4699 7.32261 19.4699 7.20706 19.4622 7.09191C19.4464 6.88563 19.3656 6.69003 19.232 6.53408C19.169 6.46725 19.0927 6.4148 19.0083 6.38018C18.9239 6.34556 18.8332 6.32957 18.7422 6.33326C18.5888 6.32762 18.4388 6.3807 18.3219 6.48201C18.2 6.58935 18.1132 6.73211 18.0734 6.89109C18.0189 7.06782 17.9942 7.25265 18.0003 7.43776C18.0004 7.56206 18.0077 7.68624 18.0222 7.80965C18.0402 8.00988 18.1209 8.19893 18.2525 8.34889C18.3143 8.41533 18.3892 8.46761 18.4724 8.50224C18.5556 8.53686 18.6451 8.55305 18.7349 8.54971C18.8857 8.55752 19.034 8.50854 19.1516 8.41211V8.41583Z" fill="#D1D1D1"/>
<path d="M24.4878 6.66422C24.6827 6.75732 24.8504 6.90068 24.9742 7.08007C25.0979 7.25947 25.1734 7.46867 25.1931 7.68691C25.1973 7.76619 25.1973 7.84564 25.1931 7.92492C25.204 8.13815 25.1642 8.35089 25.077 8.54511C24.9898 8.73933 24.8579 8.90929 24.6924 9.04058C24.3123 9.30717 23.856 9.43796 23.395 9.41247H21.4469C21.4227 9.4117 21.3995 9.40251 21.3811 9.38644C21.3725 9.37769 21.3658 9.36723 21.3614 9.3557C21.357 9.34418 21.355 9.33185 21.3556 9.3195V4.11307C21.3575 4.08912 21.3679 4.06669 21.3848 4.04985C21.3922 4.04033 21.4016 4.03268 21.4124 4.02751C21.4232 4.02235 21.435 4.01981 21.4469 4.0201H23.3365C24.411 4.0201 24.9982 4.42422 25.0981 5.23246C25.1055 5.32279 25.1055 5.4136 25.0981 5.50393C25.1152 5.73394 25.0632 5.9638 24.9489 6.16304C24.8347 6.36228 24.6637 6.5215 24.4585 6.6196C24.4415 6.63447 24.4512 6.64935 24.4878 6.66422ZM22.4374 4.97957C22.4354 4.98363 22.4344 4.98808 22.4344 4.99259C22.4344 4.9971 22.4354 5.00155 22.4374 5.0056V6.21052C22.4374 6.23655 22.4374 6.24771 22.4739 6.24771H23.3584C23.553 6.25847 23.7453 6.20068 23.903 6.08408C23.969 6.0266 24.0211 5.95445 24.0553 5.8732C24.0896 5.79194 24.105 5.70377 24.1003 5.6155V5.52253C24.0933 5.44227 24.0699 5.36441 24.0315 5.29394C23.9931 5.22348 23.9406 5.162 23.8774 5.11345C23.7242 5.00954 23.5422 4.95867 23.3584 4.96842H22.452C22.4472 4.96826 22.4424 4.96918 22.438 4.9711C22.4336 4.97303 22.4296 4.97592 22.4264 4.97957H22.4374ZM23.9834 8.28193C24.0484 8.20234 24.0946 8.10872 24.1187 8.00819C24.1428 7.90766 24.144 7.80287 24.1223 7.70179C24.1156 7.62 24.092 7.54059 24.0529 7.46879C24.0138 7.39699 23.9602 7.33444 23.8957 7.28527C23.7475 7.17911 23.5686 7.12672 23.3876 7.13652H22.4557C22.4301 7.13652 22.4191 7.13652 22.4228 7.17743V8.45672C22.4228 8.48275 22.4228 8.49763 22.4557 8.49763H23.3913C23.4978 8.50709 23.605 8.49268 23.7054 8.45541C23.8058 8.41814 23.8969 8.35893 23.9724 8.28193H23.9834Z" fill="#D1D1D1"/>
<path d="M28.3509 5.49647C28.3587 5.48762 28.3683 5.48068 28.379 5.47617C28.3898 5.47166 28.4014 5.4697 28.413 5.47044H29.2975C29.3097 5.4699 29.3218 5.47194 29.3331 5.47642C29.3444 5.48091 29.3547 5.48773 29.3633 5.49647C29.3718 5.50434 29.3783 5.51423 29.3821 5.52527C29.3859 5.5363 29.387 5.54813 29.3852 5.55969V9.3455C29.3832 9.37053 29.3729 9.39412 29.356 9.41244C29.3478 9.42073 29.3381 9.42729 29.3275 9.43175C29.3168 9.43622 29.3054 9.43851 29.2939 9.43848H28.413C28.4015 9.43851 28.3901 9.43622 28.3794 9.43175C28.3688 9.42729 28.3591 9.42073 28.3509 9.41244C28.3417 9.40418 28.3346 9.39379 28.3301 9.38215C28.3257 9.3705 28.324 9.35793 28.3253 9.3455V9.01453C28.3253 8.99221 28.3253 8.98106 28.3253 8.97734C28.3253 8.97362 28.3253 8.97734 28.2961 8.99965C28.1979 9.16173 28.0584 9.29368 27.8923 9.38144C27.7263 9.46919 27.5399 9.50947 27.3531 9.49798C27.0315 9.50209 26.7186 9.39157 26.4687 9.18559C26.2053 8.97141 26.019 8.6746 25.9387 8.34141C25.9094 8.23273 25.8875 8.12215 25.8729 8.01043C25.8471 7.82059 25.8325 7.62934 25.8291 7.43772C25.8213 7.10619 25.8619 6.77531 25.9497 6.45594C26.0487 6.15935 26.2334 5.9001 26.4796 5.71217C26.7381 5.51366 27.055 5.4101 27.3787 5.41837C27.5541 5.40448 27.7299 5.43853 27.888 5.51699C28.046 5.59545 28.1806 5.71548 28.2778 5.86464C28.2778 5.86464 28.2997 5.89067 28.3107 5.89067C28.3217 5.89067 28.3107 5.89067 28.3107 5.8572V5.57829C28.3109 5.56243 28.3145 5.54682 28.3215 5.53265C28.3285 5.51847 28.3385 5.50609 28.3509 5.49647ZM28.3034 7.85424C28.3204 7.72358 28.3277 7.59181 28.3253 7.46004C28.3359 7.33631 28.3359 7.21188 28.3253 7.08815C28.3104 6.97962 28.2822 6.87342 28.2413 6.77204C28.2029 6.64367 28.1263 6.53061 28.022 6.4485C27.9161 6.3694 27.7878 6.32762 27.6565 6.3295C27.5187 6.32569 27.3836 6.36889 27.2727 6.45222C27.167 6.53687 27.0872 6.65038 27.0425 6.77948C26.966 6.98994 26.93 7.21342 26.9365 7.43772C26.9288 7.56156 26.9288 7.68577 26.9365 7.80961C26.9496 7.90526 26.9742 7.99893 27.0096 8.08853C27.0495 8.22111 27.1302 8.33713 27.2398 8.41951C27.3521 8.50286 27.4883 8.54602 27.6273 8.54223C27.7594 8.54566 27.8886 8.50228 27.9927 8.41951C28.097 8.33428 28.1735 8.21888 28.212 8.08853C28.2514 8.01432 28.282 7.93569 28.3034 7.85424Z" fill="#D1D1D1"/>
<path d="M33.1568 5.71589C33.4013 5.93624 33.5531 6.24383 33.5807 6.57495C33.5807 6.61958 33.5807 6.69767 33.5807 6.81296V9.34551C33.58 9.37014 33.571 9.39377 33.5552 9.41245C33.547 9.42073 33.5373 9.42729 33.5266 9.43176C33.516 9.43623 33.5046 9.43851 33.493 9.43848H32.6159C32.6034 9.43955 32.5909 9.43791 32.5792 9.43367C32.5674 9.42943 32.5567 9.42268 32.5477 9.41388C32.5387 9.40508 32.5316 9.39443 32.527 9.38264C32.5224 9.37085 32.5203 9.35819 32.5208 9.34551V7.03609C32.5256 6.99532 32.5256 6.95413 32.5208 6.91337C32.5055 6.75622 32.4355 6.60981 32.3235 6.50057C32.2695 6.44803 32.2059 6.40685 32.1363 6.37941C32.0667 6.35196 31.9924 6.3388 31.9178 6.34066C31.8338 6.33708 31.7501 6.35219 31.6724 6.38495C31.5948 6.41771 31.5251 6.46732 31.4682 6.53032C31.3494 6.67027 31.2879 6.85133 31.2965 7.03609V9.34551C31.2957 9.37014 31.2867 9.39377 31.2709 9.41245C31.2627 9.42073 31.253 9.42729 31.2424 9.43176C31.2317 9.43623 31.2203 9.43851 31.2087 9.43848H30.3352C30.311 9.43771 30.2878 9.42852 30.2694 9.41245C30.2613 9.40352 30.2552 9.39293 30.2514 9.38139C30.2476 9.36984 30.2463 9.35761 30.2475 9.34551V5.57829C30.2488 5.55489 30.2578 5.53261 30.2731 5.51507C30.2808 5.50622 30.2905 5.49928 30.3012 5.49477C30.312 5.49026 30.3236 5.4883 30.3352 5.48904H31.2124C31.2245 5.4885 31.2367 5.49054 31.248 5.49502C31.2593 5.4995 31.2696 5.50633 31.2782 5.51507C31.286 5.52343 31.292 5.53339 31.2958 5.54429C31.2996 5.55519 31.3011 5.56677 31.3001 5.57829V5.84977C31.2979 5.85439 31.2967 5.85948 31.2967 5.86464C31.2967 5.86981 31.2979 5.8749 31.3001 5.87952C31.3001 5.87952 31.3001 5.87952 31.3257 5.87952C31.4268 5.73081 31.5642 5.61146 31.7244 5.53321C31.8847 5.45496 32.0621 5.42051 32.2394 5.43325C32.5689 5.40964 32.8955 5.51024 33.1568 5.71589Z" fill="#D1D1D1"/>
<path d="M37.3194 4.061C37.3271 4.05187 37.3367 4.0445 37.3474 4.03938C37.3581 4.03425 37.3697 4.03148 37.3816 4.03125H38.266C38.2784 4.03142 38.2906 4.03414 38.3019 4.03925C38.3132 4.04437 38.3234 4.05177 38.3318 4.061C38.3406 4.06865 38.3473 4.07852 38.3511 4.08962C38.355 4.10072 38.3559 4.11265 38.3537 4.12422V9.33064C38.353 9.35528 38.344 9.3789 38.3282 9.39758C38.32 9.40587 38.3103 9.41243 38.2996 9.41689C38.289 9.42136 38.2776 9.42364 38.266 9.42362H37.3816C37.3573 9.42284 37.3341 9.41365 37.3158 9.39758C37.3069 9.38915 37.3003 9.37861 37.2965 9.36693C37.2927 9.35525 37.2918 9.34278 37.2938 9.33064V7.21461C37.2938 7.18857 37.2938 7.17742 37.2573 7.17742H35.5907C35.5651 7.17742 35.5541 7.17742 35.5578 7.21461V9.34552C35.5557 9.37054 35.5454 9.39413 35.5285 9.41246C35.5204 9.42074 35.5107 9.4273 35.5 9.43177C35.4894 9.43624 35.4779 9.43852 35.4664 9.43849H34.5856C34.5613 9.43836 34.5378 9.42909 34.5198 9.41246C34.5112 9.40371 34.5045 9.39325 34.5001 9.38172C34.4957 9.3702 34.4937 9.35787 34.4942 9.34552V4.1391C34.4962 4.11514 34.5066 4.09271 34.5235 4.07588C34.5308 4.06635 34.5403 4.0587 34.5511 4.05354C34.5619 4.04837 34.5737 4.04584 34.5856 4.04613H35.4518C35.4642 4.04582 35.4766 4.04833 35.488 4.05347C35.4994 4.05862 35.5095 4.06627 35.5176 4.07588C35.5261 4.08391 35.5328 4.09372 35.5372 4.10464C35.5416 4.11555 35.5436 4.12731 35.5432 4.1391V6.21795C35.5432 6.24398 35.5432 6.25514 35.5797 6.25514H37.2792C37.3048 6.25514 37.3158 6.25514 37.3121 6.21795V4.12422C37.3075 4.10291 37.31 4.08063 37.3194 4.061Z" fill="#D1D1D1"/>
<path d="M41.6649 5.49647C41.6734 5.48773 41.6837 5.48091 41.6951 5.47642C41.7064 5.47194 41.7185 5.4699 41.7306 5.47044H42.6115C42.6236 5.4699 42.6357 5.47194 42.647 5.47642C42.6584 5.48091 42.6686 5.48773 42.6772 5.49647C42.6855 5.50465 42.6921 5.51449 42.6965 5.52537C42.7009 5.53624 42.7031 5.54793 42.7028 5.55969V9.3455C42.7021 9.37014 42.693 9.39376 42.6772 9.41244C42.6603 9.42853 42.6382 9.43779 42.6151 9.43848H41.7306C41.7064 9.4377 41.6832 9.42851 41.6649 9.41244C41.6563 9.4037 41.6496 9.39323 41.6451 9.38171C41.6407 9.37018 41.6387 9.35786 41.6393 9.3455V9.01452C41.6393 8.99221 41.6393 8.98105 41.6393 8.97734C41.6326 8.97712 41.6261 8.97921 41.6208 8.98327C41.6155 8.98733 41.6117 8.9931 41.61 8.99965C41.511 9.16175 41.3707 9.29362 41.2041 9.38133C41.0375 9.46905 40.8507 9.50935 40.6634 9.49798C40.3419 9.50146 40.0292 9.39102 39.7789 9.18559C39.5166 8.97047 39.3305 8.67404 39.249 8.34141C39.2192 8.23306 39.1984 8.12234 39.1869 8.01043C39.1648 7.82285 39.1538 7.63408 39.154 7.44516C39.1474 7.11075 39.1905 6.77724 39.2819 6.45594C39.3796 6.1587 39.5646 5.8991 39.8118 5.71217C40.0703 5.51366 40.3872 5.4101 40.7109 5.41837C40.8863 5.40448 41.0621 5.43853 41.2202 5.51699C41.3783 5.59545 41.5128 5.71548 41.61 5.86464C41.61 5.86464 41.632 5.89067 41.6393 5.89067C41.6466 5.89067 41.6393 5.89067 41.6393 5.8572V5.57829C41.6387 5.5489 41.6477 5.52014 41.6649 5.49647ZM41.621 7.85424C41.6379 7.72358 41.6453 7.59181 41.6429 7.46004C41.6515 7.33623 41.6515 7.21196 41.6429 7.08815C41.6265 6.97952 41.5971 6.87335 41.5552 6.77204C41.5183 6.64394 41.4429 6.53081 41.3396 6.4485C41.2337 6.3694 41.1054 6.32762 40.9741 6.3295C40.8363 6.32569 40.7012 6.36889 40.5903 6.45222C40.4846 6.53604 40.4057 6.64995 40.3637 6.77948C40.2792 6.98815 40.2369 7.21204 40.2395 7.43772C40.23 7.5615 40.23 7.68584 40.2395 7.80961C40.2508 7.90561 40.2754 7.9995 40.3126 8.08853C40.3489 8.22624 40.4303 8.34727 40.5432 8.43175C40.6561 8.51622 40.7938 8.55911 40.9339 8.55338C41.0658 8.55532 41.1945 8.5121 41.2994 8.43066C41.4025 8.34436 41.4787 8.22935 41.5187 8.09968C41.556 8.02109 41.5853 7.93885 41.6064 7.85424H41.621Z" fill="#D1D1D1"/>
<path d="M46.4572 5.71593C46.7029 5.93532 46.855 6.24345 46.8812 6.57499C46.8853 6.65427 46.8853 6.73372 46.8812 6.813V9.34555C46.8791 9.37058 46.8688 9.39417 46.8519 9.41249C46.8438 9.42078 46.8341 9.42734 46.8234 9.4318C46.8127 9.43627 46.8013 9.43855 46.7898 9.43853H45.9163C45.9037 9.43956 45.891 9.43791 45.8791 9.4337C45.8671 9.42949 45.8562 9.42281 45.8469 9.41407C45.8376 9.40533 45.8302 9.39473 45.8252 9.38294C45.8201 9.37115 45.8176 9.35842 45.8176 9.34555V7.03613C45.8204 6.99528 45.8204 6.95427 45.8176 6.91341C45.8026 6.75538 45.7311 6.60846 45.6166 6.50062C45.5629 6.44773 45.4993 6.40633 45.4296 6.37887C45.36 6.3514 45.2856 6.33843 45.2109 6.3407C45.1269 6.33712 45.0432 6.35224 44.9655 6.385C44.8879 6.41775 44.8182 6.46737 44.7613 6.53037C44.6421 6.66989 44.5817 6.85161 44.5932 7.03613V9.34555C44.5908 9.36982 44.582 9.39297 44.5676 9.41249C44.5493 9.42856 44.5261 9.43775 44.5019 9.43853H43.6393C43.6151 9.43775 43.5919 9.42856 43.5735 9.41249C43.5649 9.40375 43.5582 9.39328 43.5538 9.38176C43.5494 9.37024 43.5474 9.35791 43.5479 9.34555V5.57834C43.5509 5.55536 43.5598 5.53358 43.5735 5.51511C43.582 5.50618 43.5922 5.49923 43.6036 5.49473C43.615 5.49024 43.6271 5.48831 43.6393 5.48908H44.5128C44.525 5.48855 44.5371 5.49059 44.5484 5.49507C44.5597 5.49955 44.57 5.50638 44.5786 5.51511C44.5902 5.53394 44.5941 5.55661 44.5896 5.57834V5.84981C44.5896 5.84981 44.5896 5.87585 44.5896 5.87956C44.5896 5.88328 44.5896 5.87956 44.6188 5.87956C44.7194 5.73031 44.8567 5.61054 45.0171 5.53223C45.1774 5.45392 45.3552 5.4198 45.5325 5.4333C45.8645 5.40746 46.1941 5.5082 46.4572 5.71593Z" fill="#D1D1D1"/>
<path d="M50.1192 5.49651C50.1269 5.48766 50.1366 5.48072 50.1473 5.47621C50.1581 5.4717 50.1697 5.46974 50.1813 5.47048H51.0621C51.0743 5.46995 51.0864 5.47198 51.0977 5.47646C51.1091 5.48095 51.1193 5.48777 51.1279 5.49651C51.1416 5.50488 51.1526 5.51701 51.1597 5.53149C51.1668 5.54597 51.1697 5.56222 51.1681 5.57833V9.1001C51.1912 9.37017 51.1512 9.64196 51.0515 9.89334C50.9518 10.1447 50.7951 10.3686 50.5943 10.5467C50.1668 10.8501 49.653 11.0017 49.1324 10.9781C48.9569 10.9781 48.7669 10.9781 48.5366 10.9409C48.5252 10.9396 48.5142 10.9359 48.5042 10.93C48.4942 10.9242 48.4855 10.9163 48.4787 10.9069C48.4718 10.8975 48.4669 10.8867 48.4643 10.8753C48.4617 10.8639 48.4615 10.8521 48.4635 10.8405L48.4964 10.0447C48.4964 9.97775 48.5257 9.948 48.5951 9.95916C48.7606 9.9872 48.928 10.0021 49.0958 10.0038C49.3566 10.0192 49.6146 9.94305 49.8268 9.78809C49.9185 9.69968 49.989 9.59095 50.0327 9.47034C50.0764 9.34974 50.0923 9.2205 50.079 9.09266C50.079 9.09266 50.079 9.07035 50.079 9.06663C50.0747 9.06359 50.0696 9.06196 50.0644 9.06196C50.0591 9.06196 50.054 9.06359 50.0498 9.06663C49.9398 9.1761 49.8085 9.26082 49.6643 9.31528C49.5201 9.36974 49.3663 9.39272 49.2128 9.38273C48.8973 9.38483 48.587 9.3014 48.3137 9.14101C48.0289 8.96343 47.8201 8.68331 47.7289 8.35633C47.6904 8.22769 47.6634 8.09574 47.6485 7.96212C47.6339 7.82825 47.6229 7.65346 47.6156 7.43776C47.6105 7.10536 47.6561 6.77415 47.7508 6.45598C47.851 6.15902 48.037 5.89977 48.2845 5.71221C48.5366 5.52138 48.8437 5.42071 49.158 5.42585C49.324 5.41521 49.4903 5.44316 49.6442 5.50759C49.7981 5.57202 49.9355 5.67125 50.0461 5.79774H50.079C50.079 5.79774 50.079 5.79774 50.079 5.76799V5.57833C50.0796 5.56257 50.0835 5.54714 50.0905 5.53303C50.0974 5.51893 50.1072 5.50648 50.1192 5.49651ZM50.0936 7.43776C50.1033 7.314 50.1033 7.18964 50.0936 7.06588C50.0846 6.98498 50.0674 6.90523 50.0424 6.82787C50.004 6.69444 49.9262 6.57628 49.8195 6.48945C49.7052 6.40421 49.5664 6.35977 49.4248 6.36301C49.2865 6.36027 49.1514 6.40479 49.041 6.48945C48.9332 6.57748 48.852 6.69482 48.8071 6.82787C48.7281 7.02596 48.6919 7.23905 48.7011 7.45264C48.6929 7.56529 48.6929 7.67841 48.7011 7.79106C48.7096 7.8876 48.7344 7.98194 48.7742 8.06997C48.8126 8.2053 48.8951 8.32332 49.0081 8.40467C49.1246 8.49154 49.2658 8.53725 49.4102 8.53483C49.5549 8.53986 49.6969 8.49389 49.8122 8.40467C49.9178 8.3223 49.9947 8.20758 50.0315 8.07741C50.0769 7.86743 50.0978 7.65273 50.0936 7.43776Z" fill="#D1D1D1"/>
</g>
<defs>
<clipPath id="clip0_2009_3306">
<rect width="51.473" height="12.7743" fill="white"/>
</clipPath>
</defs>
</svg>
