<svg width="18" height="13" viewBox="0 0 18 13" fill="none" xmlns="http://www.w3.org/2000/svg">
<path d="M2.21437 11.9485C1.279 10.8971 0.717773 9.75 0.717773 7.83824C0.717773 4.49265 3.0562 1.52941 6.32999 0L7.17183 1.24265C4.08511 2.96324 3.43035 5.16177 3.24327 6.59559C3.71096 6.30882 4.36572 6.21324 5.02048 6.30882C6.70414 6.5 8.01366 7.83824 8.01366 9.65441C8.01366 10.5147 7.63951 11.375 7.07829 12.0441C6.42353 12.7132 5.67524 13 4.73987 13C3.71096 13 2.77559 12.5221 2.21437 11.9485ZM11.5681 11.9485C10.6327 10.8971 10.0715 9.75 10.0715 7.83824C10.0715 4.49265 12.4099 1.52941 15.6837 0L16.5255 1.24265C13.4388 2.96324 12.784 5.16177 12.597 6.59559C13.0647 6.30882 13.7194 6.21324 14.3742 6.30882C16.0578 6.5 17.3674 7.83824 17.3674 9.65441C17.3674 10.5147 16.9932 11.375 16.432 12.0441C15.8708 12.7132 15.0289 13 14.0936 13C13.0647 13 12.1293 12.5221 11.5681 11.9485Z" fill="black"/>
</svg>
