<svg width="18" height="13" viewBox="0 0 18 13" fill="none" xmlns="http://www.w3.org/2000/svg">
<path d="M15.6343 1.05147C16.5696 2.10294 17.1309 3.25 17.1309 5.16176C17.1309 8.50735 14.7924 11.4706 11.5186 13L10.6768 11.7574C13.7635 10.0368 14.4183 7.83823 14.6054 6.40441C14.1377 6.69118 13.4829 6.78676 12.8282 6.69118C11.1445 6.5 9.83497 5.16176 9.83497 3.34559C9.83497 2.48529 10.2091 1.625 10.7703 0.955884C11.4251 0.286766 12.1734 4.36729e-07 13.1088 3.54327e-07C14.1377 2.63685e-07 15.073 0.47794 15.6343 1.05147ZM6.28056 1.05147C7.21593 2.10294 7.77716 3.25 7.77716 5.16177C7.77716 8.50735 5.43873 11.4706 2.16494 13L1.3231 11.7574C4.40983 10.0368 5.06458 7.83824 5.25166 6.40441C4.78397 6.69118 4.12921 6.78677 3.47445 6.69118C1.79079 6.5 0.481271 5.16177 0.481271 3.34559C0.481271 2.48529 0.855418 1.625 1.41664 0.955884C1.97786 0.286766 2.8197 1.26075e-06 3.75507 1.17834e-06C4.78397 1.0877e-06 5.71934 0.477941 6.28056 1.05147Z" fill="black"/>
</svg>
