<svg width="156" height="242" viewBox="0 0 156 242" fill="none" xmlns="http://www.w3.org/2000/svg">
<path d="M90.2597 180.721C91.4008 181.325 92.6761 181.728 94.0856 181.829C97.945 182.064 101.402 179.882 102.979 176.593C103.482 175.553 103.784 174.412 103.852 173.204C104.087 169.311 101.905 165.854 98.5826 164.31C97.4416 163.673 96.1663 163.304 94.7568 163.203C92.0384 163.035 89.555 164.042 87.7427 165.821C86.1654 167.364 85.125 169.445 84.9907 171.828C84.7223 175.687 86.9373 179.144 90.2597 180.721Z" fill="url(#paint0_radial_842_2706)"/>
<path d="M88.1797 147.933C88.2468 148.168 88.314 148.403 88.3811 148.604C88.5154 148.873 88.6496 149.141 88.8174 149.41C88.8845 149.511 88.9181 149.645 88.9852 149.745C89.1865 150.081 89.455 150.35 89.7235 150.652C89.7571 150.685 89.7571 150.719 89.7906 150.752C90.9988 151.994 92.6433 152.732 94.4555 152.799V152.833C94.6569 152.833 94.8918 152.833 95.0932 152.867C98.0129 153.034 100.731 153.873 103.148 155.216C109.591 158.236 114.055 164.68 114.323 172.096C114.323 172.063 114.323 171.996 114.323 171.962C114.323 174.647 115.867 176.929 118.082 178.07C119.022 178.574 120.096 178.876 121.237 178.876C121.841 178.876 122.411 178.775 122.982 178.641C125.901 177.869 128.083 175.285 128.15 172.13C128.15 172.063 128.15 172.029 128.15 171.962C128.15 171.895 128.116 171.828 128.116 171.761C127.613 154.645 114.122 140.382 96.704 139.275C96.0328 139.241 95.3616 139.208 94.724 139.208C94.6904 139.208 94.6569 139.208 94.6233 139.208C94.5898 139.208 94.5897 139.208 94.5562 139.208C94.4891 139.208 94.4219 139.208 94.3884 139.208L94.3548 139.241C91.0659 139.375 88.4147 141.792 87.9113 144.98C87.8442 145.315 87.8105 145.685 87.8105 146.054C87.8105 146.524 87.8441 146.96 87.9448 147.396C88.0455 147.53 88.1126 147.732 88.1797 147.933Z" fill="url(#paint1_linear_842_2706)"/>
<path d="M155.972 170.049C155.972 170.016 155.972 169.949 155.972 169.915V169.882C154.764 139.342 131.44 114.642 101.739 111.017C101.504 110.984 101.269 110.95 101 110.916C100.698 110.883 100.43 110.883 100.128 110.883C95.0603 110.883 90.8988 114.642 90.2276 119.508C90.1605 119.978 90.127 120.414 90.127 120.884C90.127 120.951 90.127 121.052 90.127 121.119C90.127 121.656 90.1941 122.193 90.2948 122.696C90.2948 122.763 90.3283 122.864 90.3283 122.931C90.429 123.434 90.5633 123.904 90.7311 124.34C90.7646 124.441 90.7982 124.508 90.8317 124.609C90.9995 125.079 91.2345 125.515 91.4694 125.918C91.503 125.985 91.5365 126.052 91.5701 126.086C91.8386 126.522 92.107 126.925 92.4426 127.327C92.7782 127.73 93.1474 128.066 93.5166 128.401C93.5837 128.435 93.6172 128.502 93.6843 128.536C94.0535 128.838 94.4562 129.14 94.859 129.375C94.9261 129.408 94.9932 129.475 95.0939 129.509C95.5302 129.744 95.9665 129.979 96.4027 130.146C96.4699 130.18 96.537 130.18 96.6041 130.214C97.0739 130.381 97.5773 130.549 98.1143 130.65L98.1478 130.717C105.229 131.422 111.84 133.838 117.445 137.63C122.714 141.087 127.077 145.752 130.198 151.189C133.487 156.793 135.534 163.27 135.903 170.184C135.937 170.519 135.937 170.855 135.937 171.224C135.97 173.003 136.474 174.647 137.313 176.09C137.313 176.09 137.313 176.09 137.313 176.124C137.514 176.459 137.749 176.795 137.984 177.131C138.017 177.198 138.085 177.231 138.118 177.299C138.152 177.332 138.185 177.366 138.185 177.399C138.185 177.399 138.185 177.433 138.219 177.433C138.387 177.634 138.588 177.869 138.756 178.07C138.856 178.171 138.991 178.272 139.091 178.372C139.226 178.473 139.326 178.607 139.461 178.708C139.528 178.775 139.595 178.842 139.662 178.876C139.729 178.909 139.796 178.943 139.83 179.01C141.004 179.883 142.347 180.554 143.823 180.856C144.36 180.957 144.931 181.024 145.501 181.057C145.636 181.057 145.736 181.091 145.87 181.091C151.307 181.091 155.737 176.728 155.871 171.325C155.871 171.258 155.871 171.157 155.871 171.09C156.039 170.754 156.006 170.385 155.972 170.049Z" fill="url(#paint2_linear_842_2706)"/>
<path d="M122.107 199.985C120.731 200.824 119.288 201.63 117.845 202.401C117.476 202.603 117.14 202.771 116.771 202.972C105.764 208.577 93.3127 211.765 80.09 211.765C39.4821 211.765 5.85475 181.829 0.0488281 142.832C0.35087 164.143 5.04931 179.48 6.55952 183.44C6.55952 183.44 6.5595 183.474 6.59306 183.474C12.4661 200.891 22.702 216.43 38.5089 227.538C50.9597 236.264 65.5584 240.828 80.5262 241.701C82.2042 241.801 83.8822 241.868 85.5602 241.868C110.999 241.768 133.35 228.545 146.17 208.61C148.586 204.851 150.667 200.891 152.345 196.696L144.559 195.421C136.74 194.079 128.853 195.891 122.107 199.985Z" fill="url(#paint3_linear_842_2706)"/>
<path d="M117.848 202.369C119.291 201.597 120.7 200.825 122.11 199.953C121.875 200.087 121.606 200.221 121.371 200.389C120.23 201.127 119.022 201.765 117.848 202.369Z" fill="#00AEEF"/>
<path d="M102.913 206.865C101.403 207.033 99.8588 207.1 98.315 207.1C74.6215 207.1 55.3915 187.904 55.3915 164.177C55.3915 148.672 63.6137 135.08 75.9639 127.529C82.2397 123.703 83.8841 116.991 83.6492 110.816C83.2465 99.439 76.1317 88.8675 69.7553 76.8865C68.1108 73.7989 66.7684 70.5436 65.5938 67.1876C63.8822 62.3214 62.7076 57.1866 62.0364 51.9177C61.7008 49.2664 61.4659 46.6151 61.3988 43.9303C61.3988 43.2927 61.3988 42.6551 61.3988 41.9839C61.2645 37.0505 61.7008 32.0164 62.7076 26.9488C64.7548 16.8137 68.9163 7.68529 74.6215 0C73.6483 0.369162 72.7086 0.805429 71.7689 1.24171C66.4328 3.69161 59.553 8.69211 59.2174 8.92703C58.2777 9.56467 57.3715 10.303 56.5661 11.0077C51.8677 14.9007 47.7733 19.7334 44.4509 25.3044C44.0146 26.0763 42.9071 28.0228 42.8735 28.0564C42.5715 28.5934 42.303 29.1303 42.0345 29.7008C41.8332 30.1035 41.5983 30.5062 41.3969 30.9425V30.9761C36.43 41.1113 34.1814 52.5217 34.6513 63.8651C34.8862 69.2012 35.6581 74.5037 37.1012 79.6384C37.9402 82.5917 38.9806 85.4779 40.2223 88.2969C41.6318 91.4516 43.2763 94.472 45.1557 97.3582C41.0949 92.5255 37.4703 87.3237 34.3828 81.7862C32.0336 77.5912 29.9864 73.2284 28.2077 68.7314C27.3352 66.5499 26.5298 64.3349 25.825 62.0528C25.1873 60.2741 24.5832 58.4619 24.0127 56.6497C22.8045 58.8311 21.5964 61.1132 20.3882 63.4624C17.502 69.1341 15.7905 75.4433 15.6227 81.8869C15.6227 82.3567 15.5891 82.8267 15.5891 83.3301C15.5891 83.3636 15.5891 83.4307 15.5891 83.4642C15.6562 88.9345 16.5623 94.3713 18.0725 99.6403C20.3882 107.695 24.0798 115.38 28.3755 122.361C28.3755 122.361 19.8848 114.507 16.5623 110.614C15.5555 109.406 14.5823 108.198 13.6762 106.923C11.2263 103.634 9.04486 100.177 6.66209 96.8212C3.94371 105.513 2.19856 113.937 1.19175 121.891C0.252068 129.341 -0.0835036 136.389 0.017177 142.866C5.82309 181.863 39.4168 211.799 80.0583 211.799C93.281 211.799 105.732 208.61 116.74 203.006C112.477 204.952 107.846 206.328 102.913 206.865Z" fill="url(#paint4_linear_842_2706)"/>
<defs>
<radialGradient id="paint0_radial_842_2706" cx="0" cy="0" r="1" gradientUnits="userSpaceOnUse" gradientTransform="translate(94.3098 172.544) scale(18.5689 18.5688)">
<stop stop-color="#6A6A6A"/>
<stop offset="0.432" stop-color="#444444"/>
<stop offset="1"/>
</radialGradient>
<linearGradient id="paint1_linear_842_2706" x1="82.8883" y1="122.754" x2="125.565" y2="176.973" gradientUnits="userSpaceOnUse">
<stop stop-color="#6A6A6A"/>
<stop offset="0.432" stop-color="#444444"/>
<stop offset="1"/>
</linearGradient>
<linearGradient id="paint2_linear_842_2706" x1="101.146" y1="105.524" x2="147.044" y2="175.31" gradientUnits="userSpaceOnUse">
<stop stop-color="#6A6A6A"/>
<stop offset="0.432" stop-color="#444444"/>
<stop offset="1"/>
</linearGradient>
<linearGradient id="paint3_linear_842_2706" x1="6.52259" y1="187.27" x2="143.221" y2="208.206" gradientUnits="userSpaceOnUse">
<stop stop-color="#6A6A6A"/>
<stop offset="0.432" stop-color="#444444"/>
<stop offset="1"/>
</linearGradient>
<linearGradient id="paint4_linear_842_2706" x1="26.9516" y1="32.1457" x2="74.1916" y2="214.665" gradientUnits="userSpaceOnUse">
<stop stop-color="#6A6A6A"/>
<stop offset="0.432" stop-color="#444444"/>
<stop offset="1"/>
</linearGradient>
</defs>
</svg>
