<svg width="30" height="29" viewBox="0 0 30 29" fill="none" xmlns="http://www.w3.org/2000/svg">
<circle cx="15.0799" cy="14.16" r="13.66" stroke="#A4A4A4"/>
<g clip-path="url(#clip0_1875_3394)">
<path d="M15.0824 11.2511C13.4761 11.2511 12.1758 12.5529 12.1758 14.1577C12.1758 15.7639 13.4776 17.0643 15.0824 17.0643C16.6886 17.0643 17.9889 15.7625 17.9889 14.1577C17.9889 12.5515 16.6872 11.2511 15.0824 11.2511ZM15.0824 16.0443C14.0397 16.0443 13.1958 15.1999 13.1958 14.1577C13.1958 13.1155 14.0402 12.2711 15.0824 12.2711C16.1245 12.2711 16.9689 13.1155 16.9689 14.1577C16.9694 15.1999 16.125 16.0443 15.0824 16.0443Z" fill="#A4A4A4"/>
<path d="M17.4156 8.53149C16.3734 8.48288 13.792 8.48524 12.7489 8.53149C11.8323 8.57445 11.0238 8.79581 10.3719 9.44764C9.28255 10.537 9.42179 12.0049 9.42179 14.1577C9.42179 16.361 9.29907 17.795 10.3719 18.8678C11.4655 19.961 12.9547 19.818 15.082 19.818C17.2645 19.818 18.0179 19.8194 18.7896 19.5206C19.8388 19.1133 20.6308 18.1754 20.7083 16.4908C20.7573 15.4482 20.7545 12.8673 20.7083 11.8242C20.6148 9.83563 19.5476 8.62967 17.4156 8.53149ZM19.0652 18.1471C18.3511 18.8612 17.3604 18.7975 15.0683 18.7975C12.7083 18.7975 11.762 18.8324 11.0714 18.14C10.2761 17.3485 10.4201 16.0774 10.4201 14.1502C10.4201 11.5424 10.1524 9.66429 12.7697 9.53024C13.371 9.509 13.548 9.50192 15.0617 9.50192L15.083 9.51608C17.5982 9.51608 19.5717 9.25271 19.6901 11.8695C19.7171 12.4666 19.7232 12.6459 19.7232 14.1573C19.7227 16.4899 19.7671 17.4419 19.0652 18.1471Z" fill="#A4A4A4"/>
<path d="M18.104 11.8156C18.4791 11.8156 18.7832 11.5115 18.7832 11.1364C18.7832 10.7613 18.4791 10.4572 18.104 10.4572C17.7289 10.4572 17.4248 10.7613 17.4248 11.1364C17.4248 11.5115 17.7289 11.8156 18.104 11.8156Z" fill="#A4A4A4"/>
</g>
<defs>
<clipPath id="clip0_1875_3394">
<rect width="11.328" height="11.328" fill="white" transform="translate(9.41602 8.49554)"/>
</clipPath>
</defs>
</svg>
