<svg width="60" height="60" viewBox="0 0 60 60" fill="none" xmlns="http://www.w3.org/2000/svg">
<circle cx="30" cy="30" r="29.5" stroke="white"/>
<g clip-path="url(#clip0_1375_3261)">
<path d="M30.0037 23.8372C26.6007 23.8372 23.8457 26.5952 23.8457 29.9952C23.8457 33.3982 26.6037 36.1532 30.0037 36.1532C33.4067 36.1532 36.1617 33.3952 36.1617 29.9952C36.1617 26.5922 33.4037 23.8372 30.0037 23.8372ZM30.0037 33.9922C27.7947 33.9922 26.0067 32.2032 26.0067 29.9952C26.0067 27.7872 27.7957 25.9982 30.0037 25.9982C32.2117 25.9982 34.0007 27.7872 34.0007 29.9952C34.0017 32.2032 32.2127 33.9922 30.0037 33.9922Z" fill="white"/>
<path d="M34.9473 18.0751C32.7393 17.9721 27.2703 17.9771 25.0603 18.0751C23.1183 18.1661 21.4053 18.6351 20.0243 20.0161C17.7163 22.3241 18.0113 25.4341 18.0113 29.9951C18.0113 34.6631 17.7513 37.7011 20.0243 39.9741C22.3413 42.2901 25.4963 41.9871 30.0033 41.9871C34.6273 41.9871 36.2233 41.9901 37.8583 41.3571C40.0813 40.4941 41.7593 38.5071 41.9233 34.9381C42.0273 32.7291 42.0213 27.2611 41.9233 25.0511C41.7253 20.8381 39.4643 18.2831 34.9473 18.0751ZM38.4423 38.4471C36.9293 39.9601 34.8303 39.8251 29.9743 39.8251C24.9743 39.8251 22.9693 39.8991 21.5063 38.4321C19.8213 36.7551 20.1263 34.0621 20.1263 29.9791C20.1263 24.4541 19.5593 20.4751 25.1043 20.1911C26.3783 20.1461 26.7533 20.1311 29.9603 20.1311L30.0053 20.1611C35.3343 20.1611 39.5153 19.6031 39.7663 25.1471C39.8233 26.4121 39.8363 26.7921 39.8363 29.9941C39.8353 34.9361 39.9293 36.9531 38.4423 38.4471Z" fill="white"/>
<path d="M36.4048 25.033C37.1996 25.033 37.8438 24.3888 37.8438 23.594C37.8438 22.7993 37.1996 22.155 36.4048 22.155C35.6101 22.155 34.9658 22.7993 34.9658 23.594C34.9658 24.3888 35.6101 25.033 36.4048 25.033Z" fill="white"/>
</g>
<defs>
<clipPath id="clip0_1375_3261">
<rect width="24" height="24" fill="white" transform="translate(17.999 17.999)"/>
</clipPath>
</defs>
</svg>
