<svg width="42" height="34" viewBox="0 0 42 34" fill="none" xmlns="http://www.w3.org/2000/svg">
<path d="M3.76045 31.25C1.41017 28.5 0 25.5 0 20.5C0 11.75 5.87571 4 14.1017 0L16.217 3.25C8.46102 7.75 6.81582 13.5 6.34576 17.25C7.52091 16.5 9.1661 16.25 10.8113 16.5C15.0418 17 18.3322 20.5 18.3322 25.25C18.3322 27.5 17.3921 29.75 15.9819 31.5C14.3367 33.25 12.4565 34 10.1062 34C7.52091 34 5.17062 32.75 3.76045 31.25ZM27.2633 31.25C24.913 28.5 23.5028 25.5 23.5028 20.5C23.5028 11.75 29.3785 4 37.6045 0L39.7198 3.25C31.9638 7.75 30.3187 13.5 29.8486 17.25C31.0237 16.5 32.6689 16.25 34.3141 16.5C38.5446 17 41.835 20.5 41.835 25.25C41.835 27.5 40.8949 29.75 39.4848 31.5C38.0746 33.25 35.9593 34 33.609 34C31.0237 34 28.6735 32.75 27.2633 31.25Z" fill="white"/>
</svg>
