<svg width="32" height="32" viewBox="0 0 32 32" fill="none" xmlns="http://www.w3.org/2000/svg">
<path d="M25.8267 6.51991L18.0134 3.03991C16.8667 2.53325 15.1334 2.53325 13.9867 3.03991L6.1734 6.51991C4.20007 7.39991 3.90674 8.59991 3.90674 9.23991C3.90674 9.87991 4.20007 11.0799 6.1734 11.9599L13.9867 15.4399C14.5601 15.6932 15.2801 15.8266 16.0001 15.8266C16.7201 15.8266 17.4401 15.6932 18.0134 15.4399L25.8267 11.9599C27.8001 11.0799 28.0934 9.87991 28.0934 9.23991C28.0934 8.59991 27.8134 7.39991 25.8267 6.51991Z" fill="#292D32"/>
<path opacity="0.4" d="M15.9999 22.7201C15.4933 22.7201 14.9866 22.6134 14.5199 22.4134L5.53326 18.4134C4.15993 17.8001 3.09326 16.1601 3.09326 14.6534C3.09326 14.1067 3.53326 13.6667 4.07993 13.6667C4.6266 13.6667 5.06659 14.1067 5.06659 14.6534C5.06659 15.3734 5.66659 16.3067 6.33326 16.6001L15.3199 20.6001C15.7466 20.7867 16.2399 20.7867 16.6666 20.6001L25.6533 16.6001C26.3199 16.3067 26.9199 15.3867 26.9199 14.6534C26.9199 14.1067 27.3599 13.6667 27.9066 13.6667C28.4533 13.6667 28.8933 14.1067 28.8933 14.6534C28.8933 16.1467 27.8266 17.8001 26.4533 18.4134L17.4666 22.4134C17.0133 22.6134 16.5066 22.7201 15.9999 22.7201Z" fill="#292D32"/>
<path opacity="0.4" d="M15.9999 29.3334C15.4933 29.3334 14.9866 29.2267 14.5199 29.0267L5.53326 25.0267C4.05326 24.3734 3.09326 22.8934 3.09326 21.2667C3.09326 20.72 3.53326 20.28 4.07993 20.28C4.6266 20.28 5.06659 20.72 5.06659 21.2667C5.06659 22.1067 5.55993 22.8667 6.33326 23.2134L15.3199 27.2134C15.7466 27.4 16.2399 27.4 16.6666 27.2134L25.6533 23.2134C26.4133 22.88 26.9199 22.1067 26.9199 21.2667C26.9199 20.72 27.3599 20.28 27.9066 20.28C28.4533 20.28 28.8933 20.72 28.8933 21.2667C28.8933 22.8934 27.9333 24.36 26.4533 25.0267L17.4666 29.0267C17.0133 29.2267 16.5066 29.3334 15.9999 29.3334Z" fill="#292D32"/>
</svg>
