<svg width="27" height="28" viewBox="0 0 27 28" fill="none" xmlns="http://www.w3.org/2000/svg">
<path d="M19.125 11.5527H21.375C23.625 11.5527 24.75 10.4277 24.75 8.17773V5.92773C24.75 3.67773 23.625 2.55273 21.375 2.55273H19.125C16.875 2.55273 15.75 3.67773 15.75 5.92773V8.17773C15.75 10.4277 16.875 11.5527 19.125 11.5527Z" stroke="#C0C0C0" stroke-width="2" stroke-miterlimit="10" stroke-linecap="round" stroke-linejoin="round"/>
<path d="M5.625 25.0527H7.875C10.125 25.0527 11.25 23.9277 11.25 21.6777V19.4277C11.25 17.1777 10.125 16.0527 7.875 16.0527H5.625C3.375 16.0527 2.25 17.1777 2.25 19.4277V21.6777C2.25 23.9277 3.375 25.0527 5.625 25.0527Z" stroke="#C0C0C0" stroke-width="2" stroke-miterlimit="10" stroke-linecap="round" stroke-linejoin="round"/>
<path d="M6.75 11.5527C9.23528 11.5527 11.25 9.53802 11.25 7.05273C11.25 4.56745 9.23528 2.55273 6.75 2.55273C4.26472 2.55273 2.25 4.56745 2.25 7.05273C2.25 9.53802 4.26472 11.5527 6.75 11.5527Z" stroke="#C0C0C0" stroke-width="2" stroke-miterlimit="10" stroke-linecap="round" stroke-linejoin="round"/>
<path d="M20.25 25.0527C22.7353 25.0527 24.75 23.038 24.75 20.5527C24.75 18.0675 22.7353 16.0527 20.25 16.0527C17.7647 16.0527 15.75 18.0675 15.75 20.5527C15.75 23.038 17.7647 25.0527 20.25 25.0527Z" stroke="#C0C0C0" stroke-width="2" stroke-miterlimit="10" stroke-linecap="round" stroke-linejoin="round"/>
</svg>
