<svg width="27" height="28" viewBox="0 0 27 28" fill="none" xmlns="http://www.w3.org/2000/svg">
<g clip-path="url(#clip0_1168_3198)">
<path d="M11.3284 3.47527L3.53219 9.71901C2.65469 10.4165 2.09219 11.8903 2.28344 12.9928L3.77969 21.9478C4.04969 23.5453 5.57968 24.839 7.19968 24.839H19.7997C21.4084 24.839 22.9497 23.534 23.2197 21.9478L24.7159 12.9928C24.8959 11.8903 24.3334 10.4165 23.4672 9.71901L15.6709 3.48653C14.4672 2.51903 12.5209 2.51902 11.3284 3.47527Z" stroke="#C0C0C0" stroke-width="2" stroke-linecap="round" stroke-linejoin="round"/>
<path d="M13.5 17.7402C15.0533 17.7402 16.3125 16.481 16.3125 14.9277C16.3125 13.3744 15.0533 12.1152 13.5 12.1152C11.9467 12.1152 10.6875 13.3744 10.6875 14.9277C10.6875 16.481 11.9467 17.7402 13.5 17.7402Z" stroke="#C0C0C0" stroke-width="2" stroke-linecap="round" stroke-linejoin="round"/>
</g>
<defs>
<clipPath id="clip0_1168_3198">
<rect width="27" height="27" fill="white" transform="translate(0 0.302734)"/>
</clipPath>
</defs>
</svg>
