<svg width="27" height="28" viewBox="0 0 27 28" fill="none" xmlns="http://www.w3.org/2000/svg">
<path d="M15.446 4.25136L17.426 8.21136C17.696 8.76261 18.416 9.29136 19.0235 9.39261L22.6123 9.98886C24.9073 10.3714 25.4473 12.0364 23.7935 13.6789L21.0035 16.4689C20.531 16.9414 20.2723 17.8526 20.4185 18.5051L21.2173 21.9589C21.8473 24.6926 20.396 25.7501 17.9773 24.3214L14.6135 22.3301C14.006 21.9701 13.0048 21.9701 12.386 22.3301L9.02228 24.3214C6.61478 25.7501 5.15228 24.6814 5.78228 21.9589L6.58103 18.5051C6.72728 17.8526 6.46853 16.9414 5.99603 16.4689L3.20603 13.6789C1.56353 12.0364 2.09228 10.3714 4.38728 9.98886L7.97603 9.39261C8.57228 9.29136 9.29228 8.76261 9.56228 8.21136L11.5423 4.25136C12.6223 2.10261 14.3773 2.10261 15.446 4.25136Z" fill="white"/>
</svg>
