<svg width="32" height="32" viewBox="0 0 32 32" fill="none" xmlns="http://www.w3.org/2000/svg">
<circle cx="16" cy="16" r="16" fill="#F7F5F2"/>
<path d="M24.2228 19.6665H21.5278C20.3637 19.6665 19.667 20.3632 19.667 21.5273V24.2223C19.667 25.3865 20.3637 26.0832 21.5278 26.0832H24.2228C25.387 26.0832 26.0837 25.3865 26.0837 24.2223V21.5273C26.0837 20.3632 25.387 19.6665 24.2228 19.6665ZM24.8278 21.9123L22.6553 24.4515C22.5728 24.5523 22.4445 24.6165 22.3162 24.6165C22.307 24.6165 22.307 24.6165 22.2978 24.6165C22.1695 24.6165 22.0503 24.5707 21.9587 24.479L20.9595 23.489C20.7762 23.3057 20.7762 23.0032 20.9595 22.8198C21.1428 22.6365 21.4453 22.6273 21.6287 22.8198L22.2703 23.4523L24.1037 21.3073C24.2778 21.1057 24.5712 21.0873 24.7728 21.2523C24.9745 21.4173 24.9928 21.7198 24.8278 21.9123Z" fill="#292D32"/>
<path opacity="0.4" d="M19.6663 24.2227V21.5277C19.6663 20.3635 20.363 19.6668 21.5272 19.6668H24.2222C24.5888 19.6668 24.9005 19.7402 25.1663 19.8685C25.1663 19.8593 25.1663 19.8502 25.1663 19.8318V12.1593C25.1663 8.82266 23.1772 6.8335 19.8405 6.8335H12.1588C8.82217 6.8335 6.83301 8.82266 6.83301 12.1593V19.8318C6.83301 23.1777 8.82217 25.1668 12.1588 25.1668H19.8313C19.8405 25.1668 19.8497 25.1668 19.868 25.1668C19.7397 24.901 19.6663 24.5893 19.6663 24.2227Z" fill="#292D32"/>
<path d="M11.417 18.063C11.0412 18.063 10.7295 17.7513 10.7295 17.3755V14.6255C10.7295 14.2497 11.0412 13.938 11.417 13.938C11.7928 13.938 12.1045 14.2497 12.1045 14.6255V17.3755C12.1045 17.7513 11.7928 18.063 11.417 18.063Z" fill="#292D32"/>
<path d="M15.999 18.063C15.6232 18.063 15.3115 17.7513 15.3115 17.3755V14.6255C15.3115 14.2497 15.6232 13.938 15.999 13.938C16.3749 13.938 16.6865 14.2497 16.6865 14.6255V17.3755C16.6865 17.7513 16.3749 18.063 15.999 18.063Z" fill="#292D32"/>
<path d="M20.583 18.063C20.2072 18.063 19.8955 17.7513 19.8955 17.3755V14.6255C19.8955 14.2497 20.2072 13.938 20.583 13.938C20.9588 13.938 21.2705 14.2497 21.2705 14.6255V17.3755C21.2705 17.7513 20.9588 18.063 20.583 18.063Z" fill="#292D32"/>
</svg>
