<svg width="29" height="29" viewBox="0 0 29 29" fill="none" xmlns="http://www.w3.org/2000/svg">
<circle cx="14.16" cy="14.16" r="13.66" stroke="#A4A4A4"/>
<g clipPath="url(#clip0_1875_3407)">
<path d="M17.1789 11.0397C17.5254 10.6535 17.7275 10.2491 17.7984 9.83402C16.8184 9.01341 15.5578 8.49554 14.1826 8.49554C13.4725 8.49554 12.7954 8.63296 12.1689 8.8734C13.2179 9.92434 14.0951 11.1687 14.7813 12.5119C15.7923 12.1463 16.6349 11.6462 17.1789 11.0397Z" fill="#A4A4A4"/>
<path d="M17.6723 11.4831C17.0635 12.1617 16.1584 12.7136 15.0771 13.1147C15.2115 13.4095 15.335 13.7103 15.4513 14.015C16.0066 13.8956 16.5821 13.8277 17.169 13.8277C18.093 13.8277 18.9906 13.9845 19.8183 14.2726C19.8191 14.2347 19.824 14.1977 19.824 14.1595C19.824 12.6985 19.261 11.3697 18.3466 10.3667C18.2117 10.7554 17.9878 11.1316 17.6723 11.4831Z" fill="#A4A4A4"/>
<path d="M8.625 12.9672C9.33049 13.0919 10.1121 13.1638 10.863 13.1638C12.027 13.1638 13.1451 12.9986 14.1416 12.7148C13.4549 11.3955 12.5722 10.1813 11.5185 9.16586C10.0846 9.93704 8.97831 11.3325 8.625 12.9672Z" fill="#A4A4A4"/>
<path d="M19.7615 14.956C18.9609 14.6546 18.0797 14.4914 17.1695 14.4914C16.6592 14.4914 16.1581 14.5449 15.6748 14.6426C16.1654 16.114 16.4494 17.7044 16.4978 19.321C18.2239 18.5401 19.4857 16.8954 19.7615 14.956Z" fill="#A4A4A4"/>
<path d="M8.49609 14.1596C8.49609 15.9051 9.33745 17.4897 10.5863 18.5254C10.7186 17.6451 11.1155 16.7791 11.7619 16.0543C12.5307 15.1923 13.5976 14.5468 14.8059 14.1784C14.6934 13.8883 14.5706 13.604 14.441 13.3236C13.3613 13.6438 12.1453 13.8278 10.8635 13.8278C10.0792 13.8278 9.26312 13.7528 8.52332 13.6228C8.50655 13.7998 8.49609 13.9785 8.49609 14.1596V14.1596Z" fill="#A4A4A4"/>
<path d="M12.2571 16.4962C11.6042 17.2284 11.2505 18.0871 11.2051 18.9656C12.0705 19.506 13.0886 19.8237 14.1819 19.8237C14.7567 19.8237 15.3113 19.7363 15.8343 19.5758C15.8089 17.9233 15.5315 16.2985 15.0271 14.803C13.923 15.1341 12.9518 15.7172 12.2571 16.4962Z" fill="#A4A4A4"/>
</g>
<defs>
<clipPath id="clip0_1875_3407">
<rect width="11.328" height="11.328" fill="white" transform="translate(8.49609 8.49554)"/>
</clipPath>
</defs>
</svg>
