<svg width="60" height="60" viewBox="0 0 60 60" fill="none" xmlns="http://www.w3.org/2000/svg">
<circle cx="30" cy="30" r="29.5" stroke="white"/>
<g clipPath="url(#clip0_1375_3274)">
<path d="M36.3936 23.3893C37.1278 22.571 37.5559 21.7142 37.7061 20.8348C35.6298 19.0962 32.959 17.999 30.0455 17.999C28.5411 17.999 27.1064 18.2902 25.7793 18.7996C28.0016 21.0261 29.8602 23.6625 31.3138 26.5083C33.4558 25.7338 35.2411 24.6741 36.3936 23.3893Z" fill="white"/>
<path d="M37.4407 24.3287C36.1507 25.7665 34.2332 26.9358 31.9424 27.7856C32.2271 28.41 32.4888 29.0474 32.735 29.693C33.9115 29.4399 35.1308 29.296 36.3743 29.296C38.3318 29.296 40.2336 29.6282 41.9872 30.2386C41.9888 30.1583 41.9993 30.0801 41.9993 29.9991C41.9993 26.9037 40.8065 24.0885 38.8693 21.9634C38.5834 22.787 38.109 23.584 37.4407 24.3287Z" fill="white"/>
<path d="M18.2734 27.4729C19.7681 27.7371 21.4241 27.8895 23.015 27.8895C25.481 27.8895 27.8499 27.5394 29.9611 26.938C28.5063 24.1429 26.636 21.5705 24.4038 19.4192C21.3659 21.053 19.022 24.0095 18.2734 27.4729Z" fill="white"/>
<path d="M41.8654 31.6863C40.1691 31.0479 38.3021 30.7021 36.3737 30.7021C35.2926 30.7021 34.231 30.8155 33.207 31.0224C34.2465 34.1398 34.848 37.5093 34.9507 40.9343C38.6077 39.2799 41.2809 35.7952 41.8654 31.6863Z" fill="white"/>
<path d="M17.999 29.9992C17.999 33.6972 19.7816 37.0545 22.4274 39.2486C22.7078 37.3837 23.5486 35.549 24.918 34.0134C26.5469 32.1871 28.8074 30.8195 31.3672 30.0389C31.129 29.4244 30.8688 28.822 30.5941 28.228C28.3068 28.9064 25.7305 29.2961 23.0146 29.2961C21.3532 29.2961 19.6241 29.1373 18.0567 28.8619C18.0212 29.2368 17.999 29.6154 17.999 29.9992V29.9992Z" fill="white"/>
<path d="M25.9682 34.9493C24.5848 36.5006 23.8354 38.3199 23.7393 40.1812C25.5727 41.3261 27.7299 41.9992 30.0461 41.9992C31.264 41.9992 32.439 41.8139 33.5469 41.4739C33.4931 37.9729 32.9053 34.5305 31.8367 31.3621C29.4976 32.0635 27.44 33.299 25.9682 34.9493Z" fill="white"/>
</g>
<defs>
<clipPath id="clip0_1375_3274">
<rect width="24" height="24" fill="white" transform="translate(17.999 17.999)"/>
</clipPath>
</defs>
</svg>
