<svg width="16" height="16" viewBox="0 0 16 16" fill="none" xmlns="http://www.w3.org/2000/svg">
<path d="M4.82634 1.33325H3.55967C2.09967 1.33325 1.33301 2.09992 1.33301 3.55325V4.81992C1.33301 6.27325 2.09967 7.03992 3.55301 7.03992H4.81967C6.27301 7.03992 7.03967 6.27325 7.03967 4.81992V3.55325C7.04634 2.09992 6.27967 1.33325 4.82634 1.33325Z" fill="#292D32"/>
<path opacity="0.4" d="M12.4466 1.33325H11.18C9.72663 1.33325 8.95996 2.09992 8.95996 3.55325V4.81992C8.95996 6.27325 9.72663 7.03992 11.18 7.03992H12.4466C13.9 7.03992 14.6666 6.27325 14.6666 4.81992V3.55325C14.6666 2.09992 13.9 1.33325 12.4466 1.33325Z" fill="#292D32"/>
<path d="M12.4466 8.95337H11.18C9.72663 8.95337 8.95996 9.72004 8.95996 11.1734V12.44C8.95996 13.8934 9.72663 14.66 11.18 14.66H12.4466C13.9 14.66 14.6666 13.8934 14.6666 12.44V11.1734C14.6666 9.72004 13.9 8.95337 12.4466 8.95337Z" fill="#292D32"/>
<path opacity="0.4" d="M4.82634 8.95337H3.55967C2.09967 8.95337 1.33301 9.72004 1.33301 11.1734V12.44C1.33301 13.9 2.09967 14.6667 3.55301 14.6667H4.81967C6.27301 14.6667 7.03967 13.9 7.03967 12.4467V11.18C7.04634 9.72004 6.27967 8.95337 4.82634 8.95337Z" fill="#292D32"/>
</svg>
