<svg width="81" height="81" viewBox="0 0 81 81" fill="none" xmlns="http://www.w3.org/2000/svg">
<circle cx="40.5" cy="40.5" r="40" stroke="#D9D9D9"/>
<path d="M30.75 37.5H33.45C36.15 37.5 37.5 36.15 37.5 33.45V30.75C37.5 28.05 36.15 26.7 33.45 26.7H30.75C28.05 26.7 26.7 28.05 26.7 30.75V33.45C26.7 36.15 28.05 37.5 30.75 37.5Z" stroke="#292D32" strokeWidth="1.5" strokeMiterlimit="10" strokeLinecap="round" strokeLinejoin="round"/>
<path d="M46.9499 37.5H49.6499C52.3499 37.5 53.6999 36.15 53.6999 33.45V30.75C53.6999 28.05 52.3499 26.7 49.6499 26.7H46.9499C44.2499 26.7 42.8999 28.05 42.8999 30.75V33.45C42.8999 36.15 44.2499 37.5 46.9499 37.5Z" stroke="#292D32" strokeWidth="1.5" strokeMiterlimit="10" strokeLinecap="round" strokeLinejoin="round"/>
<path d="M46.9499 53.6999H49.6499C52.3499 53.6999 53.6999 52.3499 53.6999 49.6499V46.9499C53.6999 44.2499 52.3499 42.8999 49.6499 42.8999H46.9499C44.2499 42.8999 42.8999 44.2499 42.8999 46.9499V49.6499C42.8999 52.3499 44.2499 53.6999 46.9499 53.6999Z" stroke="#292D32" strokeWidth="1.5" strokeMiterlimit="10" strokeLinecap="round" strokeLinejoin="round"/>
<path d="M30.75 53.6999H33.45C36.15 53.6999 37.5 52.3499 37.5 49.6499V46.9499C37.5 44.2499 36.15 42.8999 33.45 42.8999H30.75C28.05 42.8999 26.7 44.2499 26.7 46.9499V49.6499C26.7 52.3499 28.05 53.6999 30.75 53.6999Z" stroke="#292D32" strokeWidth="1.5" strokeMiterlimit="10" strokeLinecap="round" strokeLinejoin="round"/>
</svg>
