<svg width="22" height="18" viewBox="0 0 22 18" fill="none" xmlns="http://www.w3.org/2000/svg">
<path d="M1.93483 16.0787C0.72556 14.6638 0 13.1202 0 10.5476C0 6.0456 3.02317 2.05808 7.2556 0L8.34394 1.67219C4.35336 3.98753 3.50687 6.94601 3.26502 8.87546C3.86965 8.48957 4.71614 8.36094 5.56262 8.48957C7.7393 8.74683 9.43228 10.5477 9.43228 12.9916C9.43228 14.1493 8.94857 15.307 8.22301 16.2074C7.37652 17.1078 6.40911 17.4937 5.19985 17.4937C3.86965 17.4937 2.66039 16.8505 1.93483 16.0787ZM14.0275 16.0787C12.8182 14.6638 12.0927 13.1202 12.0927 10.5476C12.0927 6.0456 15.1158 2.05808 19.3483 0L20.4366 1.67219C16.446 3.98753 15.5995 6.94601 15.3577 8.87546C15.9623 8.48957 16.8088 8.36094 17.6553 8.48957C19.832 8.74683 21.5249 10.5477 21.5249 12.9916C21.5249 14.1493 21.0412 15.307 20.3157 16.2074C19.5901 17.1078 18.5018 17.4937 17.2925 17.4937C15.9623 17.4937 14.753 16.8505 14.0275 16.0787Z" fill="#111215"/>
</svg>
