<svg width="33" height="27" viewBox="0 0 33 27" fill="none" xmlns="http://www.w3.org/2000/svg">
<path d="M20.2054 0.333724C20.0458 0.174339 19.8425 0.0658191 19.6213 0.0218719C19.4001 -0.0220753 19.1708 0.000520854 18.9624 0.0868065C18.754 0.173092 18.5759 0.319197 18.4505 0.506668C18.3251 0.694139 18.258 0.914567 18.2578 1.14011V7.60643H17.8775C13.1377 7.61167 8.59352 9.49686 5.24197 12.8484C1.89043 16.2 0.00523615 20.7441 8.09372e-07 25.4839C-0.000280446 25.7201 0.0727465 25.9506 0.209007 26.1435C0.345267 26.3365 0.538045 26.4824 0.760744 26.5611C0.983908 26.639 1.22571 26.6459 1.45293 26.5807C1.68015 26.5156 1.88162 26.3817 2.02966 26.1975L3.09471 24.8708C4.55139 23.041 6.40279 21.5642 8.51053 20.5506C10.6183 19.5371 12.9278 19.013 15.2666 19.0176H18.2578V25.4839C18.258 25.7095 18.3251 25.9299 18.4505 26.1174C18.5759 26.3048 18.754 26.4509 18.9624 26.5372C19.1708 26.6235 19.4001 26.6461 19.6213 26.6021C19.8425 26.5582 20.0458 26.4497 20.2054 26.2903L32.3773 14.1184C32.4832 14.0126 32.5673 13.8869 32.6247 13.7485C32.6821 13.6101 32.7116 13.4618 32.7116 13.312C32.7116 13.1622 32.6821 13.0139 32.6247 12.8755C32.5673 12.7372 32.4832 12.6115 32.3773 12.5056L20.2054 0.333724Z" fill="#F6F8F7"/>
</svg>
