<svg width="60" height="60" viewBox="0 0 60 60" fill="none" xmlns="http://www.w3.org/2000/svg">
<circle cx="30" cy="30" r="29.5" stroke="white"/>
<g clip-path="url(#clip0_518_2490)">
<path d="M40.5137 24.0173C39.1441 24.0173 37.8803 23.5636 36.8655 22.7981C35.7016 21.9206 34.8653 20.6334 34.57 19.1498C34.4969 18.7833 34.4575 18.405 34.4537 18.0173H30.5411V28.7086L30.5364 34.5647C30.5364 36.1303 29.5169 37.4578 28.1036 37.9247C27.6934 38.0602 27.2505 38.1244 26.7892 38.0991C26.2005 38.0667 25.6487 37.8891 25.1692 37.6022C24.1487 36.9919 23.4569 35.8847 23.4381 34.6181C23.4086 32.6386 25.0089 31.0247 26.987 31.0247C27.3775 31.0247 27.7525 31.0884 28.1036 31.2042V28.282V27.2316C27.7333 27.1767 27.3564 27.1481 26.9753 27.1481C24.8101 27.1481 22.7851 28.0481 21.3376 29.6695C20.2436 30.8948 19.5873 32.4581 19.4861 34.0973C19.3534 36.2508 20.1414 38.2978 21.6695 39.8081C21.8941 40.0299 22.1298 40.2356 22.3764 40.4255C23.6866 41.4338 25.2883 41.9803 26.9753 41.9803C27.3564 41.9803 27.7333 41.9522 28.1036 41.8974C29.6795 41.6639 31.1336 40.9425 32.2811 39.8081C33.6911 38.4145 34.4702 36.5644 34.4786 34.5952L34.4584 25.8502C35.1311 26.3691 35.8666 26.7984 36.6559 27.1317C37.8836 27.6497 39.1853 27.9122 40.525 27.9117V25.0706V24.0164C40.5259 24.0173 40.5147 24.0173 40.5137 24.0173Z" fill="white"/>
</g>
<defs>
<clipPath id="clip0_518_2490">
<rect width="24" height="24" fill="white" transform="translate(17.999 17.999)"/>
</clipPath>
</defs>
</svg>
