<svg width="29" height="29" viewBox="0 0 29 29" fill="none" xmlns="http://www.w3.org/2000/svg">
<circle cx="14.16" cy="14.16" r="13.66" stroke="#A4A4A4"/>
<g clipPath="url(#clip0_1875_3417)">
<path d="M19.1223 11.3362C18.4758 11.3362 17.8793 11.122 17.4003 10.7607C16.8509 10.3466 16.4562 9.73901 16.3168 9.03875C16.2823 8.86573 16.2637 8.68719 16.262 8.50421H14.4152V13.5505L14.413 16.3146C14.413 17.0535 13.9318 17.6801 13.2647 17.9005C13.0711 17.9644 12.862 17.9947 12.6443 17.9828C12.3664 17.9675 12.106 17.8837 11.8797 17.7483C11.398 17.4602 11.0714 16.9376 11.0626 16.3398C11.0486 15.4054 11.804 14.6437 12.7377 14.6437C12.922 14.6437 13.099 14.6738 13.2647 14.7284V13.3491V12.8533C13.0899 12.8274 12.912 12.8139 12.7321 12.8139C11.7102 12.8139 10.7544 13.2387 10.0712 14.004C9.55477 14.5824 9.24502 15.3203 9.19723 16.094C9.13461 17.1104 9.50654 18.0766 10.2278 18.7895C10.3338 18.8941 10.4451 18.9912 10.5615 19.0809C11.1799 19.5568 11.9359 19.8147 12.7321 19.8147C12.912 19.8147 13.0899 19.8015 13.2647 19.7756C14.0085 19.6654 14.6949 19.3249 15.2365 18.7895C15.902 18.1317 16.2697 17.2584 16.2737 16.3289L16.2642 12.2013C16.5817 12.4462 16.9288 12.6489 17.3014 12.8062C17.8809 13.0507 18.4953 13.1746 19.1276 13.1744V11.8334V11.3358C19.128 11.3362 19.1227 11.3362 19.1223 11.3362Z" fill="#A4A4A4"/>
</g>
<defs>
<clipPath id="clip0_1875_3417">
<rect width="11.328" height="11.328" fill="white" transform="translate(8.49512 8.49557)"/>
</clipPath>
</defs>
</svg>
