<svg width="20" height="20" viewBox="0 0 20 20" fill="none" xmlns="http://www.w3.org/2000/svg">
<path d="M9.99967 9.99996C12.3009 9.99996 14.1663 8.13448 14.1663 5.83329C14.1663 3.53211 12.3009 1.66663 9.99967 1.66663C7.69849 1.66663 5.83301 3.53211 5.83301 5.83329C5.83301 8.13448 7.69849 9.99996 9.99967 9.99996Z" fill="#292D32"/>
<path opacity="0.4" d="M9.99983 12.0834C5.82483 12.0834 2.4248 14.8834 2.4248 18.3334C2.4248 18.5667 2.60814 18.75 2.84147 18.75H17.1582C17.3915 18.75 17.5748 18.5667 17.5748 18.3334C17.5748 14.8834 14.1748 12.0834 9.99983 12.0834Z" fill="#292D32"/>
<path d="M17.8585 12.2834C17.1085 11.5334 16.5169 11.7751 16.0085 12.2834L13.0585 15.2334C12.9418 15.3501 12.8335 15.5667 12.8085 15.7251L12.6502 16.8501C12.5919 17.2584 12.8752 17.5417 13.2835 17.4834L14.4085 17.3251C14.5668 17.3001 14.7919 17.1917 14.9002 17.0751L17.8502 14.1251C18.3668 13.6251 18.6085 13.0334 17.8585 12.2834Z" fill="#292D32"/>
</svg>
