<svg width="58" height="58" viewBox="0 0 58 58" fill="none" xmlns="http://www.w3.org/2000/svg">
<path d="M49.5772 8.42262C38.1568 -2.88604 19.7313 -2.79553 8.42262 8.6249C-2.80754 19.966 -2.80754 38.2363 8.42262 49.5774C19.843 60.8861 38.2686 60.7955 49.5772 49.3751C60.8074 38.034 60.8074 19.7637 49.5772 8.42262ZM28.9999 55.7626C14.2429 55.7626 2.23727 43.7571 2.23727 28.9999C2.23727 14.2427 14.2427 2.23741 28.9999 2.23741C43.7571 2.23741 55.7626 14.2429 55.7626 29.0001C55.7626 43.7573 43.757 55.7626 28.9999 55.7626Z" fill="white"/>
<path d="M44.7761 27.9867V27.988L21.1484 14.3468C20.5892 14.0239 19.874 14.2155 19.5512 14.7748C19.4486 14.9524 19.3945 15.1538 19.3945 15.3589V42.6412C19.3948 43.2869 19.9186 43.8102 20.5644 43.8098C20.7694 43.8097 20.9709 43.7557 21.1485 43.6532L44.7763 30.012C45.3356 29.6893 45.5273 28.9741 45.2045 28.4148C45.1018 28.237 44.9541 28.0893 44.7761 27.9867Z" fill="white"/>
</svg>
