<svg width="175" height="74" viewBox="0 0 175 74" fill="none" xmlns="http://www.w3.org/2000/svg">
<path d="M27.2502 54.5599C27.6039 54.7548 27.997 54.8676 28.4002 54.8899C28.9541 54.9267 29.5063 54.7968 29.9857 54.517C30.4651 54.2372 30.8498 53.8202 31.0902 53.3199C31.4027 52.6496 31.4383 51.8831 31.1893 51.1867C30.9403 50.4903 30.4268 49.9202 29.7602 49.5999C29.2376 49.317 28.638 49.209 28.0495 49.2918C27.461 49.3745 26.9145 49.6438 26.4902 50.0599C25.9963 50.5378 25.7001 51.1838 25.6602 51.8699C25.6238 52.4262 25.756 52.9806 26.0397 53.4605C26.3234 53.9404 26.7453 54.3236 27.2502 54.5599Z" fill="url(#paint0_linear_518_2518)"/>
<path d="M26.5904 44.6898C26.6058 44.7611 26.6258 44.8312 26.6504 44.8998C26.6859 44.9838 26.7294 45.0642 26.7804 45.1398C26.7804 45.1398 26.7804 45.2098 26.8304 45.2398C26.8957 45.336 26.9694 45.4264 27.0504 45.5098C27.4256 45.8925 27.9346 46.1148 28.4704 46.1298H28.6604C30.159 46.2541 31.5654 46.9045 32.6305 47.966C33.6957 49.0275 34.351 50.4316 34.4804 51.9298C34.4816 52.312 34.5876 52.6866 34.7868 53.0128C34.986 53.339 35.2709 53.6043 35.6104 53.7798C35.9201 53.9377 36.2628 54.0199 36.6104 54.0198C36.7867 54.0185 36.9618 53.9915 37.1304 53.9398C37.5754 53.8267 37.9702 53.5688 38.2526 53.2067C38.535 52.8447 38.689 52.399 38.6904 51.9398C38.6904 51.9398 38.6904 51.9398 38.6904 51.8698C38.6132 49.3478 37.5975 46.9455 35.8423 45.1329C34.0871 43.3203 31.7186 42.2281 29.2004 42.0698C29.0004 42.0698 28.8004 42.0698 28.6004 42.0698H28.4904C28.0157 42.0891 27.5623 42.2719 27.2069 42.5871C26.8516 42.9024 26.6161 43.3308 26.5404 43.7998C26.5404 43.9098 26.5404 44.0198 26.5404 44.1298C26.5256 44.2661 26.5256 44.4036 26.5404 44.5398C26.5536 44.5909 26.5703 44.641 26.5904 44.6898Z" fill="url(#paint1_linear_518_2518)"/>
<path d="M47.0998 51.3399C46.92 46.9146 45.1746 42.697 42.1747 39.4388C39.1747 36.1806 35.1152 34.0937 30.7198 33.5499H30.4998H30.2398C29.5073 33.5437 28.7979 33.8057 28.2452 34.2865C27.6926 34.7673 27.335 35.4336 27.2398 36.1599C27.23 36.2997 27.23 36.4401 27.2398 36.5799C27.2398 36.5799 27.2398 36.5799 27.2398 36.6499C27.2405 36.8112 27.2573 36.972 27.2898 37.1299C27.2898 37.1299 27.2898 37.1799 27.2898 37.1999C27.3225 37.3462 27.366 37.49 27.4198 37.6299V37.7099C27.473 37.8446 27.5365 37.975 27.6098 38.0999V38.1599C27.6883 38.2912 27.7787 38.4151 27.8798 38.5299C27.9787 38.6471 28.0857 38.7574 28.1998 38.8599H28.2498C28.3639 38.9545 28.4841 39.0414 28.6098 39.1199H28.6698C28.7981 39.1932 28.9318 39.2568 29.0698 39.3099H29.1298C29.2768 39.3656 29.4271 39.4124 29.5798 39.4499C31.6674 39.6478 33.672 40.3664 35.4098 41.5399C36.9955 42.5863 38.3168 43.9863 39.2698 45.6299C40.2924 47.3788 40.8821 49.3468 40.9898 51.3699C40.9898 51.4699 40.9898 51.5799 40.9898 51.6799C41.0082 52.1936 41.1524 52.695 41.4098 53.1399C41.4698 53.2399 41.5398 53.3399 41.6098 53.4399C41.6598 53.4999 41.7098 53.5699 41.7698 53.6299L41.8798 53.7199C41.9115 53.7583 41.9485 53.792 41.9898 53.8199L42.0498 53.8799H42.1098C42.4653 54.1541 42.8794 54.3424 43.3198 54.4299C43.4867 54.4707 43.658 54.4909 43.8298 54.4899H43.9398C44.7354 54.4899 45.4985 54.1738 46.0611 53.6112C46.6237 53.0486 46.9398 52.2856 46.9398 51.4899V51.6899C47.1198 51.5499 47.1098 51.4399 47.0998 51.3399Z" fill="url(#paint2_linear_518_2518)"/>
<path d="M36.87 60.3799C36.45 60.6332 36.02 60.8732 35.58 61.0999L35.26 61.2699C31.808 63.0276 27.9876 63.9395 24.1138 63.9305C20.2401 63.9215 16.424 62.9919 12.9801 61.2182C9.5363 59.4445 6.5634 56.8776 4.30658 53.7292C2.04976 50.5807 0.573658 46.9409 0 43.1099C0.0185036 47.2795 0.693435 51.4202 2 55.3799C3.67654 60.7352 7.04073 65.4044 11.59 68.6899C15.3423 71.2711 19.7408 72.7534 24.29 72.9699C24.8 72.9699 25.29 73.0199 25.81 73.0199C30.1473 72.9987 34.3807 71.6901 37.9733 69.26C41.566 66.8299 44.3561 63.3877 45.99 59.3699L43.64 58.9799C41.2886 58.6268 38.8885 59.1232 36.87 60.3799Z" fill="url(#paint3_linear_518_2518)"/>
<path d="M31.0797 62.46C30.618 62.5085 30.1539 62.5319 29.6897 62.53C26.8859 62.492 24.1695 61.5484 21.9459 59.8401C19.7223 58.1317 18.1107 55.7502 17.3515 53.0509C16.5923 50.3516 16.7263 47.4791 17.7334 44.8621C18.7405 42.2452 20.5667 40.024 22.9397 38.53C23.7545 37.9835 24.403 37.2231 24.814 36.3323C25.225 35.4414 25.3827 34.4546 25.2697 33.48C25.1497 30.05 22.9997 26.86 21.0697 23.23C20.5707 22.2892 20.1493 21.3093 19.8097 20.3C19.289 18.8061 18.9303 17.2605 18.7397 15.69C18.6309 14.8876 18.5674 14.0796 18.5497 13.27C18.5497 13.07 18.5497 12.88 18.5497 12.68C18.5157 11.1566 18.6498 9.63402 18.9497 8.14C19.5381 5.19547 20.7672 2.41645 22.5497 0C22.2497 0.11 21.9697 0.240003 21.6797 0.370003C20.3584 1.04454 19.0913 1.82018 17.8897 2.69C17.6107 2.88392 17.3436 3.09429 17.0897 3.32C15.636 4.54174 14.4016 6.00273 13.4397 7.64C13.2997 7.87 12.9697 8.46 12.9597 8.47C12.9497 8.48 12.7897 8.8 12.7097 8.96L12.5097 9.34C10.318 13.9197 9.85975 19.1384 11.2197 24.03C11.4722 24.922 11.7898 25.7943 12.1697 26.64C12.5913 27.5903 13.0861 28.5064 13.6497 29.38C11.4775 26.8026 9.74735 23.8831 8.52967 20.74C8.26967 20.07 8.01967 19.4 7.80967 18.74C7.60967 18.21 7.42967 17.66 7.25967 17.11C6.89967 17.78 6.52967 18.46 6.16967 19.17C5.28461 20.8941 4.79281 22.793 4.72967 24.73C4.72967 24.87 4.72967 25.02 4.72967 25.16C4.76177 26.8168 5.01741 28.4616 5.48966 30.05C6.21263 32.4663 7.25876 34.7738 8.59966 36.91C8.59966 36.91 6.02967 34.53 5.02967 33.36C4.71967 33 4.42967 32.62 4.14966 32.24C3.41966 31.24 2.74967 30.24 2.02967 29.24C1.25421 31.7089 0.701979 34.2424 0.379661 36.81C0.108083 38.912 -0.0122269 41.0308 0.01966 43.15C0.593318 46.981 2.06942 50.6209 4.32624 53.7693C6.58306 56.9177 9.55597 59.4846 12.9998 61.2583C16.4436 63.032 20.2598 63.9617 24.1335 63.9707C28.0072 63.9796 31.8276 63.0677 35.2797 61.31C33.9554 61.9299 32.535 62.3188 31.0797 62.46Z" fill="url(#paint4_linear_518_2518)"/>
<path d="M69.6601 64.4799C67.9688 64.5021 66.2899 64.1895 64.72 63.5599C63.2495 62.9721 61.9135 62.0921 60.7929 60.9731C59.6722 59.8542 58.7901 58.5195 58.2 57.0499C56.9737 53.8639 56.9737 50.336 58.2 47.1499C58.7909 45.6824 59.6718 44.3491 60.7901 43.2299C61.9142 42.1106 63.2502 41.2267 64.72 40.6299C67.9026 39.4033 71.4275 39.4033 74.61 40.6299C76.0782 41.2243 77.4115 42.1085 78.53 43.2299C79.6545 44.3497 80.5331 45.6916 81.11 47.1699C82.3107 50.3538 82.3107 53.866 81.11 57.0499C80.5279 58.5197 79.6497 59.854 78.53 60.9699C77.4109 62.0882 76.0776 62.9691 74.61 63.5599C73.037 64.1905 71.3546 64.5032 69.6601 64.4799ZM69.6601 59.0199C70.8165 59.0503 71.958 58.7527 72.9525 58.1617C73.947 57.5706 74.7539 56.7102 75.28 55.6799C75.8258 54.5654 76.1095 53.3409 76.1095 52.0999C76.1095 50.859 75.8258 49.6344 75.28 48.5199C74.7525 47.4901 73.9455 46.6296 72.9516 46.0371C71.9576 45.4447 70.8169 45.1441 69.6601 45.1699C68.4858 45.1515 67.3295 45.4596 66.3201 46.0599C65.3418 46.6497 64.5484 47.502 64.03 48.5199C63.497 49.6381 63.2204 50.8612 63.2204 52.0999C63.2204 53.3387 63.497 54.5618 64.03 55.6799C64.5484 56.6979 65.3418 57.5501 66.3201 58.1399C67.3305 58.7367 68.4867 59.0414 69.6601 59.0199Z" fill="white"/>
<path d="M85.9404 64.1396V38.8896H91.4004V52.4397L97.6404 46.0296H104.84L96.4804 53.8696L104.67 64.1396H98.2204L92.9004 57.2197L91.4004 58.6096V64.1396H85.9404Z" fill="white"/>
<path d="M107.87 64.1398V40.2598H113.67V49.6898H122.67V40.3098H128.47V64.1898H122.67V54.8798H113.67V64.1898L107.87 64.1398Z" fill="white"/>
<path d="M140.05 64.5198C139.174 64.5656 138.299 64.4162 137.488 64.0824C136.676 63.7487 135.95 63.2388 135.36 62.5898C134.154 61.0689 133.553 59.1568 133.67 57.2198V46.0298H139.16V56.4698C139.106 57.3919 139.383 58.3029 139.94 59.0398C140.214 59.3554 140.556 59.6041 140.941 59.7671C141.326 59.93 141.742 60.0027 142.16 59.9798C142.589 59.9963 143.018 59.926 143.42 59.7731C143.822 59.6202 144.189 59.3878 144.5 59.0898C144.798 58.798 145.032 58.4471 145.187 58.0597C145.342 57.6723 145.414 57.2568 145.4 56.8398V46.0298H150.9V64.1398H145.75L145.61 61.8198C144.973 62.6576 144.156 63.3412 143.22 63.8198C142.234 64.3023 141.147 64.5423 140.05 64.5198Z" fill="white"/>
<path d="M166.66 64.5197C165.545 64.5306 164.44 64.3021 163.42 63.8497C162.509 63.4718 161.685 62.9101 161 62.1996L160.86 64.1096H155.78V38.8896H161.27V47.8896C161.908 47.1955 162.685 46.6435 163.55 46.2697C164.493 45.8467 165.517 45.6319 166.55 45.6396C168.036 45.6152 169.494 46.0443 170.73 46.8696C171.969 47.7088 172.962 48.8613 173.61 50.2097C174.341 51.7202 174.704 53.3821 174.67 55.0596C174.719 56.745 174.377 58.4187 173.67 59.9496C173.039 61.3026 172.055 62.46 170.82 63.2997C169.591 64.1223 168.139 64.5481 166.66 64.5197ZM165.23 59.9097C165.789 59.9291 166.345 59.8213 166.856 59.5943C167.367 59.3674 167.82 59.0273 168.18 58.5997C168.963 57.595 169.357 56.3416 169.29 55.0697C169.358 53.813 168.963 52.5751 168.18 51.5896C167.819 51.1633 167.366 50.8247 166.855 50.5994C166.344 50.3742 165.788 50.2683 165.23 50.2897C164.665 50.2672 164.101 50.3725 163.582 50.5975C163.063 50.8226 162.601 51.1617 162.23 51.5896C161.441 52.5718 161.042 53.8112 161.11 55.0697C161.042 56.3433 161.441 57.5981 162.23 58.5997C162.6 59.0295 163.061 59.3705 163.581 59.5973C164.1 59.8241 164.664 59.9308 165.23 59.9097Z" fill="white"/>
<defs>
<linearGradient id="paint0_linear_518_2518" x1="26.3302" y1="51.0499" x2="36.5102" y2="55.8799" gradientUnits="userSpaceOnUse">
<stop stop-color="#F2F2F2"/>
<stop offset="0.43" stop-color="#B3B3B3"/>
<stop offset="1" stop-color="#999999"/>
</linearGradient>
<linearGradient id="paint1_linear_518_2518" x1="32.0204" y1="45.9298" x2="44.9104" y2="62.3098" gradientUnits="userSpaceOnUse">
<stop stop-color="white"/>
<stop offset="0.43" stop-color="#B3B3B3"/>
<stop offset="1" stop-color="#808080"/>
</linearGradient>
<linearGradient id="paint2_linear_518_2518" x1="36.1798" y1="40.4299" x2="50.0498" y2="61.5099" gradientUnits="userSpaceOnUse">
<stop stop-color="white"/>
<stop offset="0.43" stop-color="#B3B3B3"/>
<stop offset="1" stop-color="#808080"/>
</linearGradient>
<linearGradient id="paint3_linear_518_2518" x1="1.96" y1="56.5399" x2="43.25" y2="62.8699" gradientUnits="userSpaceOnUse">
<stop stop-color="white"/>
<stop offset="0.43" stop-color="#B3B3B3"/>
<stop offset="1" stop-color="#B3B3B3"/>
</linearGradient>
<linearGradient id="paint4_linear_518_2518" x1="18.4197" y1="17.64" x2="17.0897" y2="74.58" gradientUnits="userSpaceOnUse">
<stop stop-color="white"/>
<stop offset="0.43" stop-color="#E6E6E6"/>
<stop offset="1" stop-color="#B3B3B3"/>
</linearGradient>
</defs>
</svg>
